<svg class="animated" id="freepik_stories-counting-stars" xmlns="http://www.w3.org/2000/svg" viewBox="0 0 500 500" version="1.1" xmlns:xlink="http://www.w3.org/1999/xlink" xmlns:svgjs="http://svgjs.com/svgjs"><style>svg#freepik_stories-counting-stars:not(.animated) .animable {opacity: 0;}svg#freepik_stories-counting-stars.animated #freepik--Background--inject-58 {animation: 1s 1 forwards cubic-bezier(.36,-0.01,.5,1.38) zoomIn;animation-delay: 0s;}svg#freepik_stories-counting-stars.animated #freepik--Floor--inject-58 {animation: 1s 1 forwards cubic-bezier(.36,-0.01,.5,1.38) zoomIn;animation-delay: 0s;}svg#freepik_stories-counting-stars.animated #freepik--Shadows--inject-58 {animation: 1s 1 forwards cubic-bezier(.36,-0.01,.5,1.38) lightSpeedLeft;animation-delay: 0s;}svg#freepik_stories-counting-stars.animated #freepik--Rocks--inject-58 {animation: 1s 1 forwards cubic-bezier(.36,-0.01,.5,1.38) zoomOut;animation-delay: 0s;}svg#freepik_stories-counting-stars.animated #freepik--character-1--inject-58 {animation: 1s 1 forwards cubic-bezier(.36,-0.01,.5,1.38) slideLeft;animation-delay: 0s;}svg#freepik_stories-counting-stars.animated #freepik--character-2--inject-58 {animation: 1s 1 forwards cubic-bezier(.36,-0.01,.5,1.38) lightSpeedRight;animation-delay: 0s;}svg#freepik_stories-counting-stars.animated #freepik--Stars--inject-58 {animation: 1s 1 forwards cubic-bezier(.36,-0.01,.5,1.38) lightSpeedLeft,1.5s Infinite  linear wind;animation-delay: 0s,1s;}svg#freepik_stories-counting-stars.animated #freepik--Moon--inject-58 {animation: 1s 1 forwards cubic-bezier(.36,-0.01,.5,1.38) slideRight,1.5s Infinite  linear floating;animation-delay: 0s,1s;}svg#freepik_stories-counting-stars.animated #freepik--Cloud--inject-58 {animation: 1s 1 forwards cubic-bezier(.36,-0.01,.5,1.38) lightSpeedRight,1.5s Infinite  linear floating;animation-delay: 0s,1s;}            @keyframes zoomIn {                0% {                    opacity: 0;                    transform: scale(0.5);                }                100% {                    opacity: 1;                    transform: scale(1);                }            }                    @keyframes lightSpeedLeft {              from {                transform: translate3d(-50%, 0, 0) skewX(20deg);                opacity: 0;              }              60% {                transform: skewX(-10deg);                opacity: 1;              }              80% {                transform: skewX(2deg);              }              to {                opacity: 1;                transform: translate3d(0, 0, 0);              }            }                    @keyframes zoomOut {                0% {                    opacity: 0;                    transform: scale(1.5);                }                100% {                    opacity: 1;                    transform: scale(1);                }            }                    @keyframes slideLeft {                0% {                    opacity: 0;                    transform: translateX(-30px);                }                100% {                    opacity: 1;                    transform: translateX(0);                }            }                    @keyframes lightSpeedRight {              from {                transform: translate3d(50%, 0, 0) skewX(-20deg);                opacity: 0;              }              60% {                transform: skewX(10deg);                opacity: 1;              }              80% {                transform: skewX(-2deg);              }              to {                opacity: 1;                transform: translate3d(0, 0, 0);              }            }                    @keyframes wind {                0% {                    transform: rotate( 0deg );                }                25% {                    transform: rotate( 1deg );                }                75% {                    transform: rotate( -1deg );                }            }                    @keyframes slideRight {                0% {                    opacity: 0;                    transform: translateX(30px);                }                100% {                    opacity: 1;                    transform: translateX(0);                }            }                    @keyframes floating {                0% {                    opacity: 1;                    transform: translateY(0px);                }                50% {                    transform: translateY(-10px);                }                100% {                    opacity: 1;                    transform: translateY(0px);                }            }        </style><g id="freepik--Background--inject-58" class="animable" style="transform-origin: 250.183px 249.716px;"><path d="M75.92,140.16c41.23-48.34,95.4-87.36,157.2-102.11s131.36-2.81,179.37,38.8c44.13,38.24,66.11,96.86,72.92,154.85,4.45,37.89-.81,79.7-10.74,116.41C469,368.93,460.09,389.19,446,405.52c-36.07,41.77-98.76,54.84-151.11,59.47-40.82,3.6-82.28,4-122.44-4.18S90,438.31,60.08,410.28,13.41,339.91,13.36,298.93C13.31,245.19,41,181,75.92,140.16Z" style="fill: rgb(55, 71, 79); transform-origin: 250.183px 249.716px;" id="eltbnfw2lpwie" class="animable"></path></g><g id="freepik--Floor--inject-58" class="animable" style="transform-origin: 251.476px 341.432px;"><path d="M172.2,236.91a33.42,33.42,0,0,0-10.11-31.19,33.69,33.69,0,0,1,7.54,31.88C170.4,237.45,171.43,237.06,172.2,236.91Z" style="fill: rgb(186, 104, 200); transform-origin: 167.476px 221.66px;" id="elhk9d5q8cms" class="animable"></path><path d="M167.41,236.45a20.86,20.86,0,0,0-18.48-17.53,22.11,22.11,0,0,1,16.33,17.44C166,236.4,166.71,236.41,167.41,236.45Z" style="fill: rgb(186, 104, 200); transform-origin: 158.17px 227.685px;" id="ela9dii6krvr4" class="animable"></path><g id="el6qexke2e312"><path d="M172.2,236.91a33.42,33.42,0,0,0-10.11-31.19,33.69,33.69,0,0,1,7.54,31.88C170.4,237.45,171.43,237.06,172.2,236.91Z" style="opacity: 0.3; transform-origin: 167.476px 221.66px;" class="animable"></path></g><g id="el5b1232dyqyw"><path d="M167.41,236.45a20.86,20.86,0,0,0-18.48-17.53,22.11,22.11,0,0,1,16.33,17.44C166,236.4,166.71,236.41,167.41,236.45Z" style="opacity: 0.2; transform-origin: 158.17px 227.685px;" class="animable"></path></g><path d="M170.55,237.13a30.05,30.05,0,0,0-6.2-19.12,30.49,30.49,0,0,0-17.25-10.6A32.41,32.41,0,0,1,167,237.84Z" style="fill: rgb(186, 104, 200); transform-origin: 158.831px 222.625px;" id="el6v3empruvd9" class="animable"></path><g id="ellolvjqn5jz"><path d="M147.1,207.41A32.41,32.41,0,0,1,167,237.84l1.71-.35C168.14,226.42,162.1,212.28,147.1,207.41Z" style="opacity: 0.2; transform-origin: 157.905px 222.625px;" class="animable"></path></g><g id="elpeh8jk7lwoj"><path d="M162.09,205.72a33.76,33.76,0,0,1,8.37,28.19,30.1,30.1,0,0,0-6.11-15.9,30.49,30.49,0,0,0-17.25-10.6A32.29,32.29,0,0,1,166.84,234a20.78,20.78,0,0,0-17.91-15.05,22.11,22.11,0,0,1,16.33,17.44l1.75.07c0,.47,0,.94,0,1.41l2.66-.54c0,.1,0,.2-.07.3.77-.15,1.8-.54,2.57-.69A33.42,33.42,0,0,0,162.09,205.72Z" style="opacity: 0.2; transform-origin: 159.971px 221.795px;" class="animable"></path></g><path d="M403.08,276.06c-6.59-13.92-5-31.2,3.76-43.87a45.24,45.24,0,0,0-.18,44C405.6,276.22,404.13,276,403.08,276.06Z" style="fill: rgb(186, 104, 200); transform-origin: 402.935px 254.191px;" id="el16gmhxh12c7" class="animable"></path><path d="M409.21,274a28,28,0,0,1,18.86-28.54A29.7,29.7,0,0,0,412,273.23C411.09,273.49,410.11,273.74,409.21,274Z" style="fill: rgb(186, 104, 200); transform-origin: 418.602px 259.73px;" id="ellmfxp82mzje" class="animable"></path><g id="elvuynmypcov"><path d="M403.08,276.06c-6.59-13.92-5-31.2,3.76-43.87a45.24,45.24,0,0,0-.18,44C405.6,276.22,404.13,276,403.08,276.06Z" style="opacity: 0.3; transform-origin: 402.935px 254.191px;" class="animable"></path></g><g id="el0g8tfu0c4ewb"><path d="M409.21,274a28,28,0,0,1,18.86-28.54A29.7,29.7,0,0,0,412,273.23C411.09,273.49,410.11,273.74,409.21,274Z" style="opacity: 0.2; transform-origin: 418.602px 259.73px;" class="animable"></path></g><path d="M405.31,275.85a40.34,40.34,0,0,1,2.31-26.9c3.84-8.34,11.09-15.1,19.35-19.1a43.53,43.53,0,0,0-16.86,45.86C408.66,275.74,406.76,275.81,405.31,275.85Z" style="fill: rgb(186, 104, 200); transform-origin: 415.485px 252.85px;" id="eljia2tqp8t8" class="animable"></path><g id="elhyzaauyxal"><path d="M427,229.85a43.53,43.53,0,0,0-16.86,45.86c-.7,0-1.52,0-2.33.07C405.2,261.1,408.82,240.76,427,229.85Z" style="opacity: 0.2; transform-origin: 417.027px 252.815px;" class="animable"></path></g><g id="elmfct0mv57n"><path d="M406.84,232.19a45.41,45.41,0,0,0-2.4,39.41A40.51,40.51,0,0,1,407.62,249c3.84-8.34,11.09-15.1,19.35-19.1a43.37,43.37,0,0,0-17.77,40.73,27.93,27.93,0,0,1,18.87-25.12A29.7,29.7,0,0,0,412,273.23l-2.26.63c.12.61.23,1.23.38,1.85-1.09,0-2.43.07-3.64.11.06.12.12.24.19.36-1.06,0-2.53-.16-3.58-.12C396.49,262.14,398.1,244.86,406.84,232.19Z" style="opacity: 0.2; transform-origin: 413.554px 253.04px;" class="animable"></path></g><path d="M404.28,262.75c85,49.05,85.4,128.57,1,177.61s-221.68,49.05-306.63,0-85.39-128.57-1-177.61S319.33,213.71,404.28,262.75Z" style="fill: rgb(69, 90, 100); transform-origin: 251.476px 351.557px;" id="elfre2hfli53k" class="animable"></path></g><g id="freepik--Shadows--inject-58" class="animable" style="transform-origin: 191.042px 411.915px;"><g id="elterq2zletqa"><g style="opacity: 0.2; transform-origin: 235.382px 430.28px;" class="animable"><path d="M275.3,407.08c22.2,12.82,22.31,33.59.27,46.4s-57.92,12.82-80.11,0-22.31-33.58-.26-46.4S253.11,394.27,275.3,407.08Z" id="elsllz3dm07rn" class="animable" style="transform-origin: 235.382px 430.28px;"></path></g></g><g id="elz8m9y9hap4b"><g style="opacity: 0.2; transform-origin: 146.702px 393.55px;" class="animable"><path d="M186.62,370.35c22.2,12.82,22.31,33.59.26,46.4s-57.91,12.82-80.1,0-22.31-33.58-.26-46.4S164.43,357.54,186.62,370.35Z" id="elcwjbb4oqtl6" class="animable" style="transform-origin: 146.702px 393.55px;"></path></g></g></g><g id="freepik--Rocks--inject-58" class="animable" style="transform-origin: 241.265px 334.865px;"><polygon points="60.51 354.67 84.1 341.82 92.48 342.96 102.74 352.32 103.1 358.65 107.26 365.05 107.81 372.65 95.56 374.46 93.99 375.85 85.67 377.29 81.2 381.03 71.67 378.5 68.83 373.55 58.4 369.09 51.28 363.78 53.09 359.01 56.47 354.73 60.51 354.67" style="fill: rgb(69, 90, 100); transform-origin: 79.545px 361.425px;" id="eluhn6yapifsq" class="animable"></polygon><g id="elg5b2wi9hdea"><polygon points="60.51 354.67 56.47 354.73 53.09 359.01 60.51 365.05 75.53 371.08 78.91 371.08 84.4 362.87 77.94 369.39 62.08 363.18 56.77 358.89 57.31 355.51 60.51 354.67" style="opacity: 0.1; transform-origin: 68.745px 362.875px;" class="animable"></polygon></g><g id="elmqqusk960j"><polygon points="70.28 349.35 65.52 355.51 73.78 357.32 83.19 362.87 74.69 354.67 69.8 354.67 70.58 351.71 75.69 346.4 70.28 349.35" style="opacity: 0.1; transform-origin: 74.355px 354.635px;" class="animable"></polygon></g><g id="elmghefyazswf"><polygon points="68.74 361.43 73.72 361.43 73.78 357.32 65.52 355.51 68.74 361.43" style="opacity: 0.3; transform-origin: 69.65px 358.47px;" class="animable"></polygon></g><g id="elr4sm0a5sjv9"><polygon points="79.54 367.78 73.72 361.43 73.78 357.32 83.19 362.87 79.54 367.78" style="opacity: 0.4; transform-origin: 78.455px 362.55px;" class="animable"></polygon></g><g id="elpe0s1a4nu5k"><polygon points="84.1 341.82 83.19 349.82 86.33 354.67 91.2 350.51 92.48 342.96 84.1 341.82" style="opacity: 0.2; transform-origin: 87.835px 348.245px;" class="animable"></polygon></g><g id="eln1boeyiike8"><polygon points="87.45 357.1 93.01 351.35 92.48 342.96 91.2 350.51 86.33 354.67 87.45 357.1" style="opacity: 0.1; transform-origin: 89.67px 350.03px;" class="animable"></polygon></g><g id="elhvjeylnoy35"><polygon points="84.4 362.87 87.45 357.1 93.01 351.35 92.48 342.96 102.74 352.32 97.63 356.14 89.67 357.58 84.4 362.87" style="opacity: 0.3; transform-origin: 93.57px 352.915px;" class="animable"></polygon></g><g id="el49uefigvapm"><polygon points="81.2 381.03 78.91 371.08 84.4 362.87 89.67 357.58 97.63 356.14 102.74 352.32 103.1 358.65 97.79 356.66 91 359.38 86.99 363.36 81.2 381.03" style="opacity: 0.4; transform-origin: 91.005px 366.675px;" class="animable"></polygon></g><g id="eloeatzvtigj"><polygon points="85.67 377.29 84.72 370.28 81.2 381.03 85.67 377.29" style="opacity: 0.3; transform-origin: 83.435px 375.655px;" class="animable"></polygon></g><g id="elf8mfb8iimgt"><polygon points="93.99 375.85 95.74 369.99 100.39 361.06 105.46 373 95.56 374.46 93.99 375.85" style="opacity: 0.4; transform-origin: 99.725px 368.455px;" class="animable"></polygon></g><g id="elgt3wg30oife"><polygon points="97.79 356.66 100.39 361.06 105.46 373 107.81 372.65 107.26 365.05 103.1 358.65 97.79 356.66" style="opacity: 0.3; transform-origin: 102.8px 364.83px;" class="animable"></polygon></g><g id="elr7j26d6jq6"><polygon points="85.67 377.29 93.99 375.85 95.74 369.99 100.39 361.06 97.79 356.66 91 359.38 86.99 363.36 84.72 370.28 85.67 377.29" style="opacity: 0.2; transform-origin: 92.555px 366.975px;" class="animable"></polygon></g><g id="ellizn28thtvq"><polygon points="75.53 371.08 71.67 378.5 81.2 381.03 78.91 371.08 75.53 371.08" style="opacity: 0.3; transform-origin: 76.435px 376.055px;" class="animable"></polygon></g><g id="elwc5ntvj4aph"><polygon points="68.83 373.55 72.25 369.76 75.53 371.08 71.67 378.5 68.83 373.55" style="opacity: 0.4; transform-origin: 72.18px 374.13px;" class="animable"></polygon></g><g id="el4h5tnhattgi"><polygon points="62.32 370.77 65.31 366.98 72.25 369.76 68.83 373.55 62.32 370.77" style="opacity: 0.3; transform-origin: 67.285px 370.265px;" class="animable"></polygon></g><g id="elp31iuxcl8nj"><polygon points="58.4 369.09 60.51 365.05 65.31 366.98 62.32 370.77 58.4 369.09" style="opacity: 0.4; transform-origin: 61.855px 367.91px;" class="animable"></polygon></g><g id="eldq2754rscms"><polygon points="53.09 359.01 60.51 365.05 58.4 369.09 51.28 363.78 53.09 359.01" style="opacity: 0.3; transform-origin: 55.895px 364.05px;" class="animable"></polygon></g><g id="elcjvs8l0dnsn"><polygon points="70.58 351.71 69.8 354.67 74.69 354.67 83.19 362.87 79.54 367.78 84.4 362.87 87.45 357.1 86.33 354.67 83.19 349.82 84.1 341.82 75.69 346.4 70.58 351.71" style="opacity: 0.05; transform-origin: 78.625px 354.8px;" class="animable"></polygon></g><polygon points="311.44 274.69 325.82 266.86 330.93 267.55 337.19 273.26 337.41 277.12 339.95 281.02 340.28 285.65 332.81 286.76 331.85 287.61 326.78 288.49 324.05 290.77 318.24 289.22 316.51 286.21 310.15 283.49 305.81 280.25 306.91 277.34 308.97 274.73 311.44 274.69" style="fill: rgb(69, 90, 100); transform-origin: 323.045px 278.815px;" id="elaggvdu70nkh" class="animable"></polygon><g id="eluzs3xi195lf"><polygon points="311.44 274.69 308.97 274.73 306.91 277.34 311.44 281.02 320.6 284.7 322.66 284.7 326 279.69 322.07 283.67 312.39 279.88 309.15 277.27 309.49 275.21 311.44 274.69" style="opacity: 0.1; transform-origin: 316.455px 279.695px;" class="animable"></polygon></g><g id="elgtzdrb1hrd"><polygon points="317.39 271.45 314.49 275.21 319.53 276.31 325.27 279.69 320.08 274.69 317.1 274.69 317.58 272.89 320.69 269.65 317.39 271.45" style="opacity: 0.1; transform-origin: 319.88px 274.67px;" class="animable"></polygon></g><g id="eleuzbqz21d56"><polygon points="316.46 278.81 319.49 278.81 319.53 276.31 314.49 275.21 316.46 278.81" style="opacity: 0.3; transform-origin: 317.01px 277.01px;" class="animable"></polygon></g><g id="elx4d2y43nvp"><polygon points="323.04 282.68 319.49 278.81 319.53 276.31 325.27 279.69 323.04 282.68" style="opacity: 0.4; transform-origin: 322.38px 279.495px;" class="animable"></polygon></g><g id="eljy655pajkic"><polygon points="325.82 266.86 325.27 271.74 327.18 274.69 330.15 272.15 330.93 267.55 325.82 266.86" style="opacity: 0.2; transform-origin: 328.1px 270.775px;" class="animable"></polygon></g><g id="elyaqh5xop1of"><polygon points="327.87 276.18 331.25 272.67 330.93 267.55 330.15 272.15 327.18 274.69 327.87 276.18" style="opacity: 0.1; transform-origin: 329.215px 271.865px;" class="animable"></polygon></g><g id="el7kdjssc0h94"><polygon points="326 279.69 327.87 276.18 331.25 272.67 330.93 267.55 337.19 273.26 334.07 275.59 329.22 276.47 326 279.69" style="opacity: 0.3; transform-origin: 331.595px 273.62px;" class="animable"></polygon></g><g id="elbkal0voglv"><polygon points="324.05 290.77 322.66 284.7 326 279.69 329.22 276.47 334.07 275.59 337.19 273.26 337.41 277.12 334.17 275.91 330.03 277.56 327.59 279.99 324.05 290.77" style="opacity: 0.4; transform-origin: 330.035px 282.015px;" class="animable"></polygon></g><g id="elwkwhrju07r"><polygon points="326.78 288.49 326.2 284.21 324.05 290.77 326.78 288.49" style="opacity: 0.3; transform-origin: 325.415px 287.49px;" class="animable"></polygon></g><g id="elb2kz7rudtwp"><polygon points="331.85 287.61 332.92 284.04 335.75 278.59 338.85 285.87 332.81 286.76 331.85 287.61" style="opacity: 0.4; transform-origin: 335.35px 283.1px;" class="animable"></polygon></g><g id="ell5mfqhoh4o"><polygon points="334.17 275.91 335.75 278.59 338.85 285.87 340.28 285.65 339.95 281.02 337.41 277.12 334.17 275.91" style="opacity: 0.3; transform-origin: 337.225px 280.89px;" class="animable"></polygon></g><g id="elojc5hq396v"><polygon points="326.78 288.49 331.85 287.61 332.92 284.04 335.75 278.59 334.17 275.91 330.03 277.56 327.59 279.99 326.2 284.21 326.78 288.49" style="opacity: 0.2; transform-origin: 330.975px 282.2px;" class="animable"></polygon></g><g id="el9ws87xh4g6"><polygon points="320.6 284.7 318.24 289.22 324.05 290.77 322.66 284.7 320.6 284.7" style="opacity: 0.3; transform-origin: 321.145px 287.735px;" class="animable"></polygon></g><g id="el53tm23j6mr3"><polygon points="316.51 286.21 318.59 283.89 320.6 284.7 318.24 289.22 316.51 286.21" style="opacity: 0.4; transform-origin: 318.555px 286.555px;" class="animable"></polygon></g><g id="el5idzfzdwob"><polygon points="312.54 284.51 314.37 282.2 318.59 283.89 316.51 286.21 312.54 284.51" style="opacity: 0.3; transform-origin: 315.565px 284.205px;" class="animable"></polygon></g><g id="el3jdx0wmmyps"><polygon points="310.15 283.49 311.44 281.02 314.37 282.2 312.54 284.51 310.15 283.49" style="opacity: 0.4; transform-origin: 312.26px 282.765px;" class="animable"></polygon></g><g id="ell5t132x9qdr"><polygon points="306.91 277.34 311.44 281.02 310.15 283.49 305.81 280.25 306.91 277.34" style="opacity: 0.3; transform-origin: 308.625px 280.415px;" class="animable"></polygon></g><g id="elzatywi1nz6h"><polygon points="317.58 272.89 317.1 274.69 320.08 274.69 325.27 279.69 323.04 282.68 326 279.69 327.87 276.18 327.18 274.69 325.27 271.74 325.82 266.86 320.69 269.65 317.58 272.89" style="opacity: 0.05; transform-origin: 322.485px 274.77px;" class="animable"></polygon></g><path d="M411.92,385.69c9.45-11.52,12-28.11,6.73-42.05A43.76,43.76,0,0,1,408.54,385C409.52,385.25,411,385.41,411.92,385.69Z" style="fill: rgb(186, 104, 200); transform-origin: 414.945px 364.665px;" id="elr693h2osamm" class="animable"></path><path d="M406.65,382.33a27.08,27.08,0,0,0-11-31.2A28.72,28.72,0,0,1,404.22,381C405,381.41,405.87,381.87,406.65,382.33Z" style="fill: rgb(186, 104, 200); transform-origin: 401.829px 366.73px;" id="el1nb04l7bbip" class="animable"></path><g id="elchbmpajz0cm"><path d="M411.92,385.69c9.45-11.52,12-28.11,6.73-42.05A43.76,43.76,0,0,1,408.54,385C409.52,385.25,411,385.41,411.92,385.69Z" style="opacity: 0.3; transform-origin: 414.945px 364.665px;" class="animable"></path></g><g id="elj6efy7gggk"><path d="M406.65,382.33a27.08,27.08,0,0,0-11-31.2A28.72,28.72,0,0,1,404.22,381C405,381.41,405.87,381.87,406.65,382.33Z" style="opacity: 0.2; transform-origin: 401.829px 366.73px;" class="animable"></path></g><path d="M409.88,385A39.06,39.06,0,0,0,414,359.19c-1.65-8.73-6.87-16.77-13.7-22.46a42.08,42.08,0,0,1,5.1,47C406.76,384.09,408.53,384.6,409.88,385Z" style="fill: rgb(186, 104, 200); transform-origin: 407.476px 360.865px;" id="ellyzf2a6dm1e" class="animable"></path><g id="elqf9mtyhw17b"><path d="M400.3,336.73a42.08,42.08,0,0,1,5.1,47l2.18.61C413.43,371.16,414.79,351.22,400.3,336.73Z" style="opacity: 0.2; transform-origin: 406.017px 360.535px;" class="animable"></path></g><g id="el3ickc55q9yh"><path d="M418.65,343.64a43.88,43.88,0,0,1-7,37.55,39.06,39.06,0,0,0,2.31-22c-1.65-8.73-6.87-16.77-13.7-22.46a41.94,41.94,0,0,1,7.16,42.39,27,27,0,0,0-11.83-28A28.72,28.72,0,0,1,404.22,381l2,1.12c-.26.55-.51,1.11-.8,1.65l3.4.95-.26.3c1,.28,2.41.44,3.38.72C421.37,374.17,423.9,357.58,418.65,343.64Z" style="opacity: 0.2; transform-origin: 408.466px 361.235px;" class="animable"></path></g><polygon points="363.9 383.36 381.92 366.81 389.59 365.98 400.71 371.99 402.43 377.51 407.52 382.24 409.67 388.84 399.24 393.14 398.16 394.71 391.12 397.82 388 402.11 379.01 401.97 375.42 398.22 365.21 396.57 357.75 393.45 358.3 388.84 360.34 384.31 363.9 383.36" style="fill: rgb(69, 90, 100); transform-origin: 383.71px 384.045px;" id="elhzlksbzjt1p" class="animable"></polygon><g id="elr1rjpldtxj8"><polygon points="363.9 383.36 360.34 384.31 358.3 388.84 366.19 392.54 380.79 394.56 383.78 393.82 386.83 385.36 382.55 392.54 367.16 390.54 361.52 387.92 361.26 384.81 363.9 383.36" style="opacity: 0.1; transform-origin: 372.565px 388.96px;" class="animable"></polygon></g><g id="elrlhaalx3h18"><polygon points="371.36 376.51 368.51 383.01 376.22 382.79 385.76 385.62 376.43 380.24 372.11 381.32 372.16 378.53 375.5 372.71 371.36 376.51" style="opacity: 0.1; transform-origin: 377.135px 379.165px;" class="animable"></polygon></g><g id="eljhxcjc76sb"><polygon points="372.67 387.52 377.07 386.43 376.22 382.79 368.51 383.01 372.67 387.52" style="opacity: 0.3; transform-origin: 372.79px 385.155px;" class="animable"></polygon></g><g id="el76385jqbdny"><polygon points="383.61 390.76 377.07 386.43 376.22 382.79 385.76 385.62 383.61 390.76" style="opacity: 0.4; transform-origin: 380.99px 386.775px;" class="animable"></polygon></g><g id="el3xxazfrzs9k"><polygon points="381.92 366.81 382.89 374.08 386.73 377.68 390.11 372.93 389.59 365.98 381.92 366.81" style="opacity: 0.2; transform-origin: 386.015px 371.83px;" class="animable"></polygon></g><g id="elbzyopk1q5jh"><polygon points="388.26 379.58 391.9 373.28 389.59 365.98 390.11 372.93 386.73 377.68 388.26 379.58" style="opacity: 0.1; transform-origin: 389.315px 372.78px;" class="animable"></polygon></g><g id="eloy8i661yod8"><polygon points="386.83 385.36 388.26 379.58 391.9 373.28 389.59 365.98 400.71 371.99 397.04 376.49 390.32 379.52 386.83 385.36" style="opacity: 0.3; transform-origin: 393.77px 375.67px;" class="animable"></polygon></g><g id="el5gqu52d0p"><polygon points="388 402.11 383.78 393.82 386.83 385.36 390.32 379.52 397.04 376.49 400.71 371.99 402.43 377.51 397.3 376.92 391.89 380.81 389.23 385.21 388 402.11" style="opacity: 0.4; transform-origin: 393.105px 387.05px;" class="animable"></polygon></g><g id="elyrg5r4vwhnk"><polygon points="391.12 397.82 388.75 391.83 388 402.11 391.12 397.82" style="opacity: 0.3; transform-origin: 389.56px 396.97px;" class="animable"></polygon></g><g id="elgl719kcppi"><polygon points="398.16 394.71 398.42 389.15 400.56 380.24 407.67 389.67 399.24 393.14 398.16 394.71" style="opacity: 0.4; transform-origin: 402.915px 387.475px;" class="animable"></polygon></g><g id="elaux5kza82nl"><polygon points="397.3 376.92 400.56 380.24 407.67 389.67 409.67 388.84 407.52 382.24 402.43 377.51 397.3 376.92" style="opacity: 0.3; transform-origin: 403.485px 383.295px;" class="animable"></polygon></g><g id="el3f9bzw4o9n5"><polygon points="391.12 397.82 398.16 394.71 398.42 389.15 400.56 380.24 397.3 376.92 391.89 380.81 389.23 385.21 388.75 391.83 391.12 397.82" style="opacity: 0.2; transform-origin: 394.655px 387.37px;" class="animable"></polygon></g><g id="elc27qwl4zcru"><polygon points="380.79 394.56 379.01 401.97 388 402.11 383.78 393.82 380.79 394.56" style="opacity: 0.3; transform-origin: 383.505px 397.965px;" class="animable"></polygon></g><g id="el4fz7iaztnsp"><polygon points="375.42 398.22 377.6 394.12 380.79 394.56 379.01 401.97 375.42 398.22" style="opacity: 0.4; transform-origin: 378.105px 398.045px;" class="animable"></polygon></g><g id="elp2alwjckuco"><polygon points="369.05 397.19 370.86 393.19 377.6 394.12 375.42 398.22 369.05 397.19" style="opacity: 0.3; transform-origin: 373.325px 395.705px;" class="animable"></polygon></g><g id="el5b8v98rhone"><polygon points="365.21 396.57 366.19 392.54 370.86 393.19 369.05 397.19 365.21 396.57" style="opacity: 0.4; transform-origin: 368.035px 394.865px;" class="animable"></polygon></g><g id="elcjf4m5i5v8l"><polygon points="358.3 388.84 366.19 392.54 365.21 396.57 357.75 393.45 358.3 388.84" style="opacity: 0.3; transform-origin: 361.97px 392.705px;" class="animable"></polygon></g><g id="elc8vhvgciw6k"><polygon points="372.16 378.53 372.11 381.32 376.43 380.24 385.76 385.62 383.61 390.76 386.83 385.36 388.26 379.58 386.73 377.68 382.89 374.08 381.92 366.81 375.5 372.71 372.16 378.53" style="opacity: 0.05; transform-origin: 380.185px 378.785px;" class="animable"></polygon></g><polygon points="398.37 389.39 411.32 377.5 416.83 376.9 424.82 381.22 426.05 385.19 429.71 388.59 431.25 393.33 423.76 396.42 422.98 397.55 417.93 399.79 415.68 402.87 409.23 402.76 406.64 400.07 399.31 398.89 393.95 396.64 394.34 393.33 395.81 390.07 398.37 389.39" style="fill: rgb(69, 90, 100); transform-origin: 412.6px 389.885px;" id="elpcutw6bf8vd" class="animable"></polygon><g id="el7qlf726nnv9"><polygon points="398.37 389.39 395.81 390.07 394.34 393.33 400.01 395.99 410.51 397.44 412.65 396.91 414.84 390.83 411.77 395.99 400.71 394.55 396.66 392.67 396.47 390.44 398.37 389.39" style="opacity: 0.1; transform-origin: 404.59px 393.415px;" class="animable"></polygon></g><g id="el9zub579schb"><polygon points="403.73 384.47 401.68 389.14 407.22 388.98 414.07 391.02 407.37 387.15 404.27 387.93 404.3 385.92 406.7 381.74 403.73 384.47" style="opacity: 0.1; transform-origin: 407.875px 386.38px;" class="animable"></polygon></g><g id="eloaoeppmu7i"><polygon points="404.67 392.38 407.83 391.6 407.22 388.98 401.68 389.14 404.67 392.38" style="opacity: 0.3; transform-origin: 404.755px 390.68px;" class="animable"></polygon></g><g id="elulyae7gfi79"><polygon points="412.53 394.71 407.83 391.6 407.22 388.98 414.07 391.02 412.53 394.71" style="opacity: 0.4; transform-origin: 410.645px 391.845px;" class="animable"></polygon></g><g id="eloq7s0wd3qhi"><polygon points="411.32 377.5 412.01 382.73 414.77 385.31 417.2 381.9 416.83 376.9 411.32 377.5" style="opacity: 0.2; transform-origin: 414.26px 381.105px;" class="animable"></polygon></g><g id="elfiaswh03rjr"><polygon points="415.87 386.68 418.48 382.15 416.83 376.9 417.2 381.9 414.77 385.31 415.87 386.68" style="opacity: 0.1; transform-origin: 416.625px 381.79px;" class="animable"></polygon></g><g id="elpr0lxtpcd4b"><polygon points="414.84 390.83 415.87 386.68 418.48 382.15 416.83 376.9 424.82 381.22 422.18 384.46 417.35 386.63 414.84 390.83" style="opacity: 0.3; transform-origin: 419.83px 383.865px;" class="animable"></polygon></g><g id="eluhzqyvqbx1"><polygon points="415.68 402.87 412.65 396.91 414.84 390.83 417.35 386.63 422.18 384.46 424.82 381.22 426.05 385.19 422.36 384.76 418.48 387.56 416.56 390.72 415.68 402.87" style="opacity: 0.4; transform-origin: 419.35px 392.045px;" class="animable"></polygon></g><g id="elmin5avqafbs"><polygon points="417.93 399.79 416.22 395.48 415.68 402.87 417.93 399.79" style="opacity: 0.3; transform-origin: 416.805px 399.175px;" class="animable"></polygon></g><g id="elh0f6zte5d19"><polygon points="422.98 397.55 423.17 393.56 424.71 387.15 429.82 393.92 423.76 396.42 422.98 397.55" style="opacity: 0.4; transform-origin: 426.4px 392.35px;" class="animable"></polygon></g><g id="el9yctcc015xn"><polygon points="422.36 384.76 424.71 387.15 429.82 393.92 431.25 393.33 429.71 388.59 426.05 385.19 422.36 384.76" style="opacity: 0.3; transform-origin: 426.805px 389.34px;" class="animable"></polygon></g><g id="ely40ll4cmlse"><polygon points="417.93 399.79 422.98 397.55 423.17 393.56 424.71 387.15 422.36 384.76 418.48 387.56 416.56 390.72 416.22 395.48 417.93 399.79" style="opacity: 0.2; transform-origin: 420.465px 392.275px;" class="animable"></polygon></g><g id="el9jgx94dcxqs"><polygon points="410.51 397.44 409.23 402.76 415.68 402.87 412.65 396.91 410.51 397.44" style="opacity: 0.3; transform-origin: 412.455px 399.89px;" class="animable"></polygon></g><g id="el6ghjcsofwr"><polygon points="406.64 400.07 408.21 397.12 410.51 397.44 409.23 402.76 406.64 400.07" style="opacity: 0.4; transform-origin: 408.575px 399.94px;" class="animable"></polygon></g><g id="el0rm7nhgsjzwn"><polygon points="402.07 399.33 403.37 396.45 408.21 397.12 406.64 400.07 402.07 399.33" style="opacity: 0.3; transform-origin: 405.14px 398.26px;" class="animable"></polygon></g><g id="eld1odtxrw3si"><polygon points="399.31 398.89 400.01 395.99 403.37 396.45 402.07 399.33 399.31 398.89" style="opacity: 0.4; transform-origin: 401.34px 397.66px;" class="animable"></polygon></g><g id="eli2jy3pl3ts8"><polygon points="394.34 393.33 400.01 395.99 399.31 398.89 393.95 396.64 394.34 393.33" style="opacity: 0.3; transform-origin: 396.98px 396.11px;" class="animable"></polygon></g><g id="el6fgbwt6vldi"><polygon points="404.3 385.92 404.27 387.93 407.37 387.15 414.07 391.02 412.53 394.71 414.84 390.83 415.87 386.68 414.77 385.31 412.01 382.73 411.32 377.5 406.7 381.74 404.3 385.92" style="opacity: 0.05; transform-origin: 410.07px 386.105px;" class="animable"></polygon></g></g><g id="freepik--character-1--inject-58" class="animable" style="transform-origin: 147.578px 326.879px;"><path d="M104.87,343.15c-6.59,2.18-4.94,13.47-10.67,34.82-6.92,25.81,15.35,31.92,23.06,35.3s20.31,8.47,44.38-1.69,44.19-22.19,37.61-36.86-16-11.09-24.63-10.34-32.91,6-32.91,6C112.93,343.88,117.1,338.52,104.87,343.15Z" style="fill: rgb(186, 104, 200); transform-origin: 146.699px 379.618px;" id="el0miw99rb1n8p" class="animable"></path><g id="elqz3p076ztah"><path d="M104.87,343.15c-6.59,2.18-4.94,13.47-10.67,34.82-6.92,25.81,15.35,31.92,23.06,35.3s20.31,8.47,44.38-1.69,44.19-22.19,37.61-36.86-16-11.09-24.63-10.34-32.91,6-32.91,6C112.93,343.88,117.1,338.52,104.87,343.15Z" style="fill: rgb(255, 255, 255); opacity: 0.3; transform-origin: 146.699px 379.618px;" class="animable"></path></g><g id="else1v1uhzxsa"><path d="M183.08,368C174,368.61,153,378.48,153,378.48l-.66-2.91C163.8,370.59,180.82,365.88,183.08,368Z" style="opacity: 0.3; transform-origin: 167.71px 372.979px;" class="animable"></path></g><path d="M160.51,341c2.73-7.49-3.76-9.65-4-26.86h0a36,36,0,0,0-1.18-8.27c-8.73-.51-18.37-.67-24.58-2.51s-15.9-2.28-19.83,10.62c-8.5,27.93,4.59,43.17-14.47,63-.71,7.61,32.45,26,49.8,13.68,8.18-4.94,11.42-14.25,11.42-14.25a61,61,0,0,1-5.39-19.58,11.64,11.64,0,0,1,4-9.89A14.51,14.51,0,0,0,160.51,341Z" style="fill: rgb(245, 245, 245); transform-origin: 128.809px 348.6px;" id="ele5ppa05njk9" class="animable"></path><polygon points="147.92 278 152.71 282 149.94 284.35 147.92 278" style="fill: rgb(255, 145, 146); transform-origin: 150.315px 281.175px;" id="el2xs8vjgf7d9" class="animable"></polygon><path d="M147.42,275.61c-2.1-4.28-4.95-8-8.63-9.06a25.66,25.66,0,0,1,2.52,17.16,7.42,7.42,0,0,0-3.56-3,4.29,4.29,0,0,0-4.48.64,4.42,4.42,0,0,0-1.25,3,5.77,5.77,0,0,0,9.39,4.66,11.08,11.08,0,0,1-5,11,14.31,14.31,0,0,1-8,2.11l1,6.44c6.79,3.41,13.85-3.16,13.85-3.16l-1.07-6.3c9.82-3,10.65-3.45,9.77-9.13A55.27,55.27,0,0,0,147.42,275.61Z" style="fill: rgb(255, 168, 167); transform-origin: 140.318px 288.046px;" id="elb19buhl5r8w" class="animable"></path><path d="M113.23,294.69a25.31,25.31,0,0,0,10.76,6.8,17.16,17.16,0,0,0,4.4.66,14.31,14.31,0,0,0,8-2.11,11.08,11.08,0,0,0,5-11,5.77,5.77,0,0,1-9.39-4.66,4.42,4.42,0,0,1,1.25-3,4.29,4.29,0,0,1,4.48-.64,7.42,7.42,0,0,1,3.56,3,25.66,25.66,0,0,0-2.52-17.16c3.68,1.06,6.53,4.78,8.63,9.06a12.07,12.07,0,0,0-2.77-11.08,16.43,16.43,0,0,0-12.24-5,27.9,27.9,0,0,0-13,3.67,24.41,24.41,0,0,0-6.71,5,13.61,13.61,0,0,0-3.53,7.59C106.48,279.44,108.82,290.24,113.23,294.69Z" style="fill: rgb(38, 50, 56); transform-origin: 127.894px 280.857px;" id="elnpyk1ohh4w" class="animable"></path><g id="elr71w51e9kns"><path d="M122.41,290.56c7.71-6.07,5.46-21.45-8.19-23.85a17.34,17.34,0,0,0-1.5,1.47,13.61,13.61,0,0,0-3.53,7.59c-2.71,3.67-.37,14.47,4,18.92a26.1,26.1,0,0,0,9.56,6.4,18.81,18.81,0,0,1-2.28-4.38A5.48,5.48,0,0,1,122.41,290.56Z" style="opacity: 0.3; transform-origin: 117.419px 283.9px;" class="animable"></path></g><path d="M93.28,326.86a7.9,7.9,0,0,0,3.46-4.59,16.83,16.83,0,0,0,.55-5.83c-.27-5.68-1.73-11.23-2.93-16.78S92.2,288.38,93,282.75s3.47-11.24,8.24-14.34a15.27,15.27,0,0,1,21.61,5.33,11.3,11.3,0,0,1-.4,11.48A11.43,11.43,0,0,1,112,290.39c2,5.32,3.88,11,4.61,16.59s.09,11.59-2.86,16.44-8.51,8.29-14.15,7.72C97,330.87,94,329.38,93.28,326.86Z" style="fill: rgb(38, 50, 56); transform-origin: 108.465px 298.579px;" id="el66pneadyvmc" class="animable"></path><g id="elbfuurpqqa3n"><path d="M114.63,287.21a5.89,5.89,0,0,0,6.23-.11s0,0,0,0a11.44,11.44,0,0,1-8.92,3.33,81.73,81.73,0,0,0-3.14-9.37C111.42,282.33,112.22,285.6,114.63,287.21Z" style="opacity: 0.3; transform-origin: 114.83px 285.76px;" class="animable"></path></g><path d="M201.59,244.05l-3.86-2.24a1.75,1.75,0,0,0-1.78,0l-3.63,2.22,2.71-6.16a1.19,1.19,0,0,0-2.16-1l-3.21,6.46a6.58,6.58,0,0,0-.67,3.43l.56,8-17.83,28L148.9,305.14c-16.24,16,1.17,24.36,8.13,15.75s26.25-31.58,26.25-31.58L196.07,257c1.73-.15,4.37-2.76,4.65-6.49a1.73,1.73,0,0,0,1.73-1.73v-3.25A1.74,1.74,0,0,0,201.59,244.05Z" style="fill: rgb(255, 168, 167); transform-origin: 172.314px 280.259px;" id="elwwcnbcbs8i" class="animable"></path><g id="elemhnk6ckxun"><path d="M200.72,250.53V247C202.35,248.26,201,250,200.72,250.53Z" style="opacity: 0.2; transform-origin: 201.115px 248.765px;" class="animable"></path></g><path d="M167.36,315.06c-2.48-6.2-9.14-12.76-15.62-14.35l-7.87,8.74a9.83,9.83,0,0,0,.37,13.55h0a9.83,9.83,0,0,0,13.34.47Z" style="fill: rgb(224, 224, 224); transform-origin: 154.351px 313.281px;" id="elm9nxtupezi" class="animable"></path></g><g id="freepik--character-2--inject-58" class="animable" style="transform-origin: 241.815px 351.019px;"><path d="M185.9,376.39c-6.59,2.18-8.09,18.54-6,40.54s14.48,25.77,22.19,29.15,20.31,8.47,44.38-1.69,44.19-22.19,37.61-36.86-16-11.09-24.63-10.34-32.91,6-32.91,6C197.74,376.69,198.14,371.76,185.9,376.39Z" style="fill: rgb(38, 50, 56); transform-origin: 232.182px 412.619px;" id="elgx2tlwv4y8h" class="animable"></path><g id="elygqs8ub15x"><path d="M267.89,400.76c-9.12.66-30.09,10.53-30.09,10.53l-.66-2.91C248.61,403.39,265.63,398.69,267.89,400.76Z" style="opacity: 0.3; transform-origin: 252.515px 405.775px;" class="animable"></path></g><path d="M218.24,333c-14-3.11-20.12-1.6-27.64,14.57-4.85,10.43-9.9,23.63-12.87,31.7a8.11,8.11,0,0,0,4.51,10.3l5.4,2.24Z" style="fill: rgb(186, 104, 200); transform-origin: 197.735px 361.749px;" id="elzv0gedclywa" class="animable"></path><g id="elbdgt77y0868"><path d="M218.24,333c-14-3.11-20.12-1.6-27.64,14.57-4.85,10.43-9.9,23.63-12.87,31.7a8.11,8.11,0,0,0,4.51,10.3l5.4,2.24Z" style="opacity: 0.2; transform-origin: 197.735px 361.749px;" class="animable"></path></g><path d="M248.52,332c-13.74,10.51-24.07,2.78-30.28,1s-14.24.14-21.3,10.58-13.83,39.91-15.66,66.29c-.71,7.61,32.45,26,49.8,13.68,8.18-4.94,11.42-14.25,11.42-14.25C238.83,384.45,254.31,353.74,248.52,332Z" style="fill: rgb(186, 104, 200); transform-origin: 215.55px 379.844px;" id="elv1voiyz81q" class="animable"></path><g id="elpe8eszzd5c"><g style="opacity: 0.1; transform-origin: 215.55px 379.844px;" class="animable"><path d="M248.52,332c-13.74,10.51-24.07,2.78-30.28,1s-14.24.14-21.3,10.58-13.83,39.91-15.66,66.29c-.71,7.61,32.45,26,49.8,13.68,8.18-4.94,11.42-14.25,11.42-14.25C238.83,384.45,254.31,353.74,248.52,332Z" id="elodok34nk6yc" class="animable" style="transform-origin: 215.55px 379.844px;"></path></g></g><path d="M235.12,298.28c.75-1.44-.64-2.79-.64-2.79a3.24,3.24,0,0,0,2.39-1.29,2.49,2.49,0,0,0,.3-2.58,2.1,2.1,0,0,0-2.27-1.11,3.6,3.6,0,0,0,1.21-4.52,4.38,4.38,0,0,0-4-2.09,10.49,10.49,0,0,0-4.51,1.41,3.8,3.8,0,0,0-3.43-3.5,4.65,4.65,0,0,0-3.81,2.18,13.6,13.6,0,0,0-1.69,4.24A13.49,13.49,0,0,0,203.28,302a9.28,9.28,0,0,0-3.44,8,14.64,14.64,0,0,0,3.56,8,39.15,39.15,0,0,0,6.61,6l3.38,2.57c1.41,1.08,5,3.72,6.41,4.8a14.08,14.08,0,0,0,12.26-5.46,22.71,22.71,0,0,0,4.32-13A72.82,72.82,0,0,0,235.12,298.28Z" style="fill: rgb(38, 50, 56); transform-origin: 218.604px 306.611px;" id="el7qzrul3mt0e" class="animable"></path><path d="M240.32,306.27l4.41,3.66-2.28,2Q241.52,309,240.32,306.27Z" style="fill: rgb(255, 168, 167); transform-origin: 242.525px 309.1px;" id="elqagzwsdi0xe" class="animable"></path><path d="M235.12,298.28a40.58,40.58,0,0,1,5.2,8q1.2,2.76,2.13,5.63a58,58,0,0,1,2,8.22,9.13,9.13,0,0,1-.08,4.53,6.64,6.64,0,0,1-3.55,3.57,19.9,19.9,0,0,1-5,1.34l-1.38,10.07c-5.29,3.53-15.86-.14-15.86-6.39l1.19-1.92a15.14,15.14,0,0,0,7.68-4.34c3.2-3.66,3-7.53,1.75-9.25a3.21,3.21,0,0,1-2.72,2.27,4.49,4.49,0,0,1-3.37-1.09A9.41,9.41,0,0,1,221,316a6.34,6.34,0,0,1-.91-4.25,4.51,4.51,0,0,1,4-3.23,7,7,0,0,1,5,1.77,11.61,11.61,0,0,1,1.22,1.21,1,1,0,0,0,1.67-.88,12.89,12.89,0,0,0-3.53-6,5.21,5.21,0,0,0,2.32-.3,2.92,2.92,0,0,0,1.7-1.72,2,2,0,0,0-.73-2.2C234,300.71,235.12,298.28,235.12,298.28Z" style="fill: rgb(255, 168, 167); transform-origin: 231.638px 319.648px;" id="el3viyv8ul22x" class="animable"></path><path d="M287.53,280.16l3.41-6.25-.68-9.58a7.91,7.91,0,0,1,.82-4.12l3.85-7.77a1.44,1.44,0,0,1,1.84-.68h0a1.43,1.43,0,0,1,.75,1.9l-3.24,7.39,4.35-2.66a2.1,2.1,0,0,1,2.14,0l4.63,2.69a2.08,2.08,0,0,1,1,1.8v3.91a2.09,2.09,0,0,1-2.08,2.09h0c-.33,4.47-3.5,7.61-5.58,7.79l-3.34,8.27Z" style="fill: rgb(255, 168, 167); transform-origin: 296.965px 268.295px;" id="elggy8p6ha2wh" class="animable"></path><g id="el4pvgyzf1v9w"><path d="M304.36,268.85v-4.28C306.32,266.11,304.73,268.16,304.36,268.85Z" style="opacity: 0.2; transform-origin: 304.84px 266.71px;" class="animable"></path></g><path d="M242.1,334.46l27.41-26.94,17.09-28.35c8.95-1.55,11,5.19,11,5.19l-13.65,33.87s-24.25,29.94-32.6,40.28S222.58,353.63,242.1,334.46Z" style="fill: rgb(186, 104, 200); transform-origin: 265.755px 320.396px;" id="elnqkuk5fzw" class="animable"></path><g id="elbwb7ujqu8p5"><path d="M242.1,334.46l27.41-26.94,17.09-28.35c8.95-1.55,11,5.19,11,5.19l-13.65,33.87s-24.25,29.94-32.6,40.28S222.58,353.63,242.1,334.46Z" style="opacity: 0.2; transform-origin: 265.755px 320.396px;" class="animable"></path></g></g><g id="freepik--Stars--inject-58" class="animable" style="transform-origin: 260.75px 151.25px;"><path d="M191.67,142.83c3.21,0,3.22-5,0-5s-3.23,5,0,5Z" style="fill: rgb(186, 104, 200); transform-origin: 191.666px 140.33px;" id="el8pvxkhx0ok3" class="animable"></path><path d="M287.67,174.17c3.21,0,3.22-5,0-5s-3.23,5,0,5Z" style="fill: rgb(186, 104, 200); transform-origin: 287.666px 171.67px;" id="el27342y473is" class="animable"></path><path d="M336.33,69.5c3.22,0,3.23-5,0-5s-3.22,5,0,5Z" style="fill: rgb(186, 104, 200); transform-origin: 336.33px 67px;" id="ela7wh9n2hd99" class="animable"></path><path d="M259,74.17c3.22,0,3.22-5,0-5s-3.22,5,0,5Z" style="fill: rgb(186, 104, 200); transform-origin: 259px 71.67px;" id="el663jqdslrw6" class="animable"></path><path d="M200.33,206.83c3.22,0,3.23-5,0-5s-3.22,5,0,5Z" style="fill: rgb(186, 104, 200); transform-origin: 200.33px 204.33px;" id="elc1z7lmrhvbn" class="animable"></path><path d="M108.33,213.5c3.22,0,3.23-5,0-5s-3.22,5,0,5Z" style="fill: rgb(186, 104, 200); transform-origin: 108.33px 211px;" id="elhinp1x4m6dg" class="animable"></path><path d="M118.33,131.5c3.22,0,3.23-5,0-5s-3.22,5,0,5Z" style="fill: rgb(186, 104, 200); transform-origin: 118.33px 129px;" id="el5l8hypjdhz9" class="animable"></path><path d="M369,110.83c3.22,0,3.22-5,0-5s-3.22,5,0,5Z" style="fill: rgb(186, 104, 200); transform-origin: 369px 108.33px;" id="elcnidfn4qfr" class="animable"></path><path d="M442.33,238.17c3.22,0,3.23-5,0-5s-3.22,5,0,5Z" style="fill: rgb(186, 104, 200); transform-origin: 442.33px 235.67px;" id="elemx6170init" class="animable"></path><path d="M369.67,234.83c3.21,0,3.22-5,0-5s-3.23,5,0,5Z" style="fill: rgb(186, 104, 200); transform-origin: 369.666px 232.33px;" id="eleig7jqj9yzc" class="animable"></path><path d="M358.33,174.83c3.22,0,3.23-5,0-5s-3.22,5,0,5Z" style="fill: rgb(186, 104, 200); transform-origin: 358.33px 172.33px;" id="el5ubn2dbmtv5" class="animable"></path><path d="M433,164.83c3.22,0,3.22-5,0-5s-3.22,5,0,5Z" style="fill: rgb(186, 104, 200); transform-origin: 433px 162.33px;" id="el497nm9o80rj" class="animable"></path><path d="M362,196a1.5,1.5,0,0,0,0-3,1.5,1.5,0,0,0,0,3Z" style="fill: rgb(186, 104, 200); transform-origin: 362px 194.5px;" id="el7sd8tlnm53f" class="animable"></path><path d="M339,150.5a1.5,1.5,0,0,0,0-3,1.5,1.5,0,0,0,0,3Z" style="fill: rgb(186, 104, 200); transform-origin: 339px 149px;" id="elc83uezq6f0i" class="animable"></path><path d="M271,165.5a1.5,1.5,0,0,0,0-3,1.5,1.5,0,0,0,0,3Z" style="fill: rgb(186, 104, 200); transform-origin: 271px 164px;" id="elhsdgoeen83h" class="animable"></path><path d="M308.5,188.5a1.5,1.5,0,0,0,0-3,1.5,1.5,0,0,0,0,3Z" style="fill: rgb(186, 104, 200); transform-origin: 308.5px 187px;" id="el0namhh9wuumi" class="animable"></path><path d="M315.5,118a1.5,1.5,0,0,0,0-3,1.5,1.5,0,0,0,0,3Z" style="fill: rgb(186, 104, 200); transform-origin: 315.5px 116.5px;" id="elyyc2uh9n8hj" class="animable"></path><path d="M242.5,68a1.5,1.5,0,0,0,0-3,1.5,1.5,0,0,0,0,3Z" style="fill: rgb(186, 104, 200); transform-origin: 242.5px 66.5px;" id="el5ai4fmx5lh9" class="animable"></path><path d="M266.5,126a1.5,1.5,0,0,0,0-3,1.5,1.5,0,0,0,0,3Z" style="fill: rgb(186, 104, 200); transform-origin: 266.5px 124.5px;" id="el5qex43pj87s" class="animable"></path><path d="M235.5,99a1.5,1.5,0,0,0,0-3,1.5,1.5,0,0,0,0,3Z" style="fill: rgb(186, 104, 200); transform-origin: 235.5px 97.5px;" id="elycfoxf27irn" class="animable"></path><path d="M193.5,113a1.5,1.5,0,0,0,0-3,1.5,1.5,0,0,0,0,3Z" style="fill: rgb(186, 104, 200); transform-origin: 193.5px 111.5px;" id="eljpy8m9xa27r" class="animable"></path><path d="M162,149.5a1.5,1.5,0,0,0,0-3,1.5,1.5,0,0,0,0,3Z" style="fill: rgb(186, 104, 200); transform-origin: 162px 148px;" id="elk14zau0z4eb" class="animable"></path><path d="M212,179a1.5,1.5,0,0,0,0-3,1.5,1.5,0,0,0,0,3Z" style="fill: rgb(186, 104, 200); transform-origin: 212px 177.5px;" id="el3dtxi6illjw" class="animable"></path><path d="M175.5,187a1.5,1.5,0,0,0,0-3,1.5,1.5,0,0,0,0,3Z" style="fill: rgb(186, 104, 200); transform-origin: 175.5px 185.5px;" id="elc5n29fa5p9" class="animable"></path><path d="M89,162.5a1.5,1.5,0,0,0,0-3,1.5,1.5,0,0,0,0,3Z" style="fill: rgb(186, 104, 200); transform-origin: 89px 161px;" id="elk9ujew3tlr" class="animable"></path><path d="M84.5,218a1.5,1.5,0,0,0,0-3,1.5,1.5,0,0,0,0,3Z" style="fill: rgb(186, 104, 200); transform-origin: 84.5px 216.5px;" id="elor1ey73sux" class="animable"></path><path d="M140.5,227a1.5,1.5,0,0,0,0-3,1.5,1.5,0,0,0,0,3Z" style="fill: rgb(186, 104, 200); transform-origin: 140.5px 225.5px;" id="el2wfi38z9jh5" class="animable"></path><path d="M362.5,66a1.5,1.5,0,0,0,0-3,1.5,1.5,0,0,0,0,3Z" style="fill: rgb(186, 104, 200); transform-origin: 362.5px 64.5px;" id="elr2dcjlbnsm" class="animable"></path><path d="M328.5,55a1.5,1.5,0,0,0,0-3,1.5,1.5,0,0,0,0,3Z" style="fill: rgb(186, 104, 200); transform-origin: 328.5px 53.5px;" id="eleoczo0w8pf4" class="animable"></path><path d="M322.5,82a1.5,1.5,0,0,0,0-3,1.5,1.5,0,0,0,0,3Z" style="fill: rgb(186, 104, 200); transform-origin: 322.5px 80.5px;" id="elvvs402rt5n" class="animable"></path><path d="M387.5,97.5a1.5,1.5,0,0,0,0-3,1.5,1.5,0,0,0,0,3Z" style="fill: rgb(186, 104, 200); transform-origin: 387.5px 96px;" id="elmdg3k8muig" class="animable"></path><path d="M383,126a1.5,1.5,0,0,0,0-3,1.5,1.5,0,0,0,0,3Z" style="fill: rgb(186, 104, 200); transform-origin: 383px 124.5px;" id="elujwn3dexyu" class="animable"></path><path d="M436.5,151a1.5,1.5,0,0,0,0-3,1.5,1.5,0,0,0,0,3Z" style="fill: rgb(186, 104, 200); transform-origin: 436.5px 149.5px;" id="el0p8v5l7aq67o" class="animable"></path><path d="M449.5,184.5a1.5,1.5,0,0,0,0-3,1.5,1.5,0,0,0,0,3Z" style="fill: rgb(186, 104, 200); transform-origin: 449.5px 183px;" id="elj04ohe0oyrl" class="animable"></path><path d="M405.5,184a1.5,1.5,0,0,0,0-3,1.5,1.5,0,0,0,0,3Z" style="fill: rgb(186, 104, 200); transform-origin: 405.5px 182.5px;" id="elbrp9as6o2dn" class="animable"></path><path d="M444,258.5a1.5,1.5,0,0,0,0-3,1.5,1.5,0,0,0,0,3Z" style="fill: rgb(186, 104, 200); transform-origin: 444px 257px;" id="elq93irg3xxl" class="animable"></path><path d="M225,62a1.5,1.5,0,0,0,0-3,1.5,1.5,0,0,0,0,3Z" style="fill: rgb(186, 104, 200); transform-origin: 225px 60.5px;" id="eljjw9ky0vret" class="animable"></path><path d="M403,165.5a.5.5,0,0,0,0-1,.5.5,0,0,0,0,1Z" style="fill: rgb(186, 104, 200); transform-origin: 403px 165px;" id="elxgqb5t7oqp" class="animable"></path><path d="M370,178a.5.5,0,0,0,0-1,.5.5,0,0,0,0,1Z" style="fill: rgb(186, 104, 200); transform-origin: 370px 177.5px;" id="eluwj0yn6jwl" class="animable"></path><path d="M321,190a.5.5,0,0,0,0-1,.5.5,0,0,0,0,1Z" style="fill: rgb(186, 104, 200); transform-origin: 321px 189.5px;" id="elbokwuqw7eg6" class="animable"></path><path d="M319,158a.5.5,0,0,0,0-1,.5.5,0,0,0,0,1Z" style="fill: rgb(186, 104, 200); transform-origin: 319px 157.5px;" id="ell7bl6xvupkb" class="animable"></path><path d="M283,193.5a.5.5,0,0,0,0-1,.5.5,0,0,0,0,1Z" style="fill: rgb(186, 104, 200); transform-origin: 283px 193px;" id="elajr83li1szg" class="animable"></path><path d="M241,173.5a.5.5,0,0,0,0-1,.5.5,0,0,0,0,1Z" style="fill: rgb(186, 104, 200); transform-origin: 241px 173px;" id="eljidq4qmmtu" class="animable"></path><path d="M239.5,211a.5.5,0,0,0,0-1,.5.5,0,0,0,0,1Z" style="fill: rgb(186, 104, 200); transform-origin: 239.5px 210.5px;" id="elyu4dfdlxcpb" class="animable"></path><path d="M264,139.5a.5.5,0,0,0,0-1,.5.5,0,0,0,0,1Z" style="fill: rgb(186, 104, 200); transform-origin: 264px 139px;" id="el7bg4jo60mnl" class="animable"></path><path d="M215.5,127.5a.5.5,0,0,0,0-1,.5.5,0,0,0,0,1Z" style="fill: rgb(186, 104, 200); transform-origin: 215.5px 127px;" id="elj5cmpaswzy" class="animable"></path><path d="M276.5,105.5a.5.5,0,0,0,0-1,.5.5,0,0,0,0,1Z" style="fill: rgb(186, 104, 200); transform-origin: 276.5px 105px;" id="elyk1iwqss0bj" class="animable"></path><path d="M293,64.5a.5.5,0,0,0,0-1,.5.5,0,0,0,0,1Z" style="fill: rgb(186, 104, 200); transform-origin: 293px 64px;" id="el3buh2dknvgo" class="animable"></path><path d="M273,55.5a.5.5,0,0,0,0-1,.5.5,0,0,0,0,1Z" style="fill: rgb(186, 104, 200); transform-origin: 273px 55px;" id="elgqnmmwrrcwn" class="animable"></path><path d="M247.5,78.5a.5.5,0,0,0,0-1,.5.5,0,0,0,0,1Z" style="fill: rgb(186, 104, 200); transform-origin: 247.5px 78px;" id="eljvvclehbln" class="animable"></path><path d="M201.5,80.5a.5.5,0,0,0,0-1,.5.5,0,0,0,0,1Z" style="fill: rgb(186, 104, 200); transform-origin: 201.5px 80px;" id="el86cp0hww34m" class="animable"></path><path d="M186,87.5a.5.5,0,0,0,0-1,.5.5,0,0,0,0,1Z" style="fill: rgb(186, 104, 200); transform-origin: 186px 87px;" id="eljdtoh8ew7b" class="animable"></path><path d="M198,104a.5.5,0,0,0,0-1,.5.5,0,0,0,0,1Z" style="fill: rgb(186, 104, 200); transform-origin: 198px 103.5px;" id="eluklnnwd823b" class="animable"></path><path d="M170.5,108a.5.5,0,0,0,0-1,.5.5,0,0,0,0,1Z" style="fill: rgb(186, 104, 200); transform-origin: 170.5px 107.5px;" id="eliji8ofjnjj" class="animable"></path><path d="M172.5,127a.5.5,0,0,0,0-1,.5.5,0,0,0,0,1Z" style="fill: rgb(186, 104, 200); transform-origin: 172.5px 126.5px;" id="elqbr7jczck5" class="animable"></path><path d="M140.5,121a.5.5,0,0,0,0-1,.5.5,0,0,0,0,1Z" style="fill: rgb(186, 104, 200); transform-origin: 140.5px 120.5px;" id="eljn1en0bxaun" class="animable"></path><path d="M119,167a.5.5,0,0,0,0-1,.5.5,0,0,0,0,1Z" style="fill: rgb(186, 104, 200); transform-origin: 119px 166.5px;" id="elou6x5znq2hm" class="animable"></path><path d="M144,98a.5.5,0,0,0,0-1,.5.5,0,0,0,0,1Z" style="fill: rgb(186, 104, 200); transform-origin: 144px 97.5px;" id="elmav23h8u31t" class="animable"></path><path d="M105,129.5a.5.5,0,0,0,0-1,.5.5,0,0,0,0,1Z" style="fill: rgb(186, 104, 200); transform-origin: 105px 129px;" id="elm6scy901pl" class="animable"></path><path d="M113.5,148a.5.5,0,0,0,0-1,.5.5,0,0,0,0,1Z" style="fill: rgb(186, 104, 200); transform-origin: 113.5px 147.5px;" id="elcruz26ytyhl" class="animable"></path><path d="M92.5,177.5a.5.5,0,0,0,0-1,.5.5,0,0,0,0,1Z" style="fill: rgb(186, 104, 200); transform-origin: 92.5px 177px;" id="el37jx9s2q4x2" class="animable"></path><path d="M70,197.5a.5.5,0,0,0,0-1,.5.5,0,0,0,0,1Z" style="fill: rgb(186, 104, 200); transform-origin: 70px 197px;" id="ely3zlj9f7tu" class="animable"></path><path d="M47.5,240a.5.5,0,0,0,0-1,.5.5,0,0,0,0,1Z" style="fill: rgb(186, 104, 200); transform-origin: 47.5px 239.5px;" id="el68s0x67tqss" class="animable"></path><path d="M62,257.5a.5.5,0,0,0,0-1,.5.5,0,0,0,0,1Z" style="fill: rgb(186, 104, 200); transform-origin: 62px 257px;" id="el3e2sedrf6r1" class="animable"></path><path d="M83.5,237a.5.5,0,0,0,0-1,.5.5,0,0,0,0,1Z" style="fill: rgb(186, 104, 200); transform-origin: 83.5px 236.5px;" id="elgpsqx1ucgun" class="animable"></path><path d="M97,240a.5.5,0,0,0,0-1,.5.5,0,0,0,0,1Z" style="fill: rgb(186, 104, 200); transform-origin: 97px 239.5px;" id="eljjwm3k2nxhl" class="animable"></path><path d="M136,200.5a.5.5,0,0,0,0-1,.5.5,0,0,0,0,1Z" style="fill: rgb(186, 104, 200); transform-origin: 136px 200px;" id="elrgnke5xa63s" class="animable"></path><path d="M335,209a.5.5,0,0,0,0-1,.5.5,0,0,0,0,1Z" style="fill: rgb(186, 104, 200); transform-origin: 335px 208.5px;" id="eldltqmh644ld" class="animable"></path><path d="M394.5,224.5a.5.5,0,0,0,0-1,.5.5,0,0,0,0,1Z" style="fill: rgb(186, 104, 200); transform-origin: 394.5px 224px;" id="els4ucl2t6w1" class="animable"></path><path d="M420,247.5a.5.5,0,0,0,0-1,.5.5,0,0,0,0,1Z" style="fill: rgb(186, 104, 200); transform-origin: 420px 247px;" id="elmu92bf1zzs" class="animable"></path><path d="M431,206a.5.5,0,0,0,0-1,.5.5,0,0,0,0,1Z" style="fill: rgb(186, 104, 200); transform-origin: 431px 205.5px;" id="el9b46a2uuxi4" class="animable"></path><path d="M474,216.5a.5.5,0,0,0,0-1,.5.5,0,0,0,0,1Z" style="fill: rgb(186, 104, 200); transform-origin: 474px 216px;" id="eljyfafe1ckf" class="animable"></path><path d="M471,260a.5.5,0,0,0,0-1,.5.5,0,0,0,0,1Z" style="fill: rgb(186, 104, 200); transform-origin: 471px 259.5px;" id="elyryyvwn9nxk" class="animable"></path><path d="M353,122.83a.5.5,0,0,0,0-1,.5.5,0,0,0,0,1Z" style="fill: rgb(186, 104, 200); transform-origin: 353px 122.33px;" id="elxkcvt1hnvp" class="animable"></path><path d="M360.33,142.17a.5.5,0,0,0,0-1,.5.5,0,0,0,0,1Z" style="fill: rgb(186, 104, 200); transform-origin: 360.33px 141.67px;" id="el9nagbf160pm" class="animable"></path><path d="M339,89.5a.5.5,0,0,0,0-1,.5.5,0,0,0,0,1Z" style="fill: rgb(186, 104, 200); transform-origin: 339px 89px;" id="el1525y1del63" class="animable"></path><path d="M403,86.17a.5.5,0,0,0,0-1,.5.5,0,0,0,0,1Z" style="fill: rgb(186, 104, 200); transform-origin: 403px 85.67px;" id="el2z3p0wef76k" class="animable"></path><path d="M419,118.83a.5.5,0,0,0,0-1,.5.5,0,0,0,0,1Z" style="fill: rgb(186, 104, 200); transform-origin: 419px 118.33px;" id="elgyzj6cmhjrh" class="animable"></path><path d="M297,43.5a.5.5,0,0,0,0-1,.5.5,0,0,0,0,1Z" style="fill: rgb(186, 104, 200); transform-origin: 297px 43px;" id="ell1vq0dcmo4" class="animable"></path><path d="M291,140.83a.5.5,0,0,0,0-1,.5.5,0,0,0,0,1Z" style="fill: rgb(186, 104, 200); transform-origin: 291px 140.33px;" id="elicm44izl4t" class="animable"></path><path d="M228.33,149.5a.5.5,0,0,0,0-1,.5.5,0,0,0,0,1Z" style="fill: rgb(186, 104, 200); transform-origin: 228.33px 149px;" id="el8h8feiqwejb" class="animable"></path><path d="M193.67,164.83a.5.5,0,0,0,0-1,.5.5,0,0,0,0,1Z" style="fill: rgb(186, 104, 200); transform-origin: 193.67px 164.33px;" id="elzocdex19az" class="animable"></path><g id="eldif0xpuo1cr"><g style="opacity: 0.2; transform-origin: 260.75px 151.25px;" class="animable"><path d="M191.67,142.83c3.21,0,3.22-5,0-5s-3.23,5,0,5Z" style="fill: rgb(255, 255, 255); transform-origin: 191.666px 140.33px;" id="elffbvxglr3z" class="animable"></path><path d="M287.67,174.17c3.21,0,3.22-5,0-5s-3.23,5,0,5Z" style="fill: rgb(255, 255, 255); transform-origin: 287.666px 171.67px;" id="eln9w83u0g55j" class="animable"></path><path d="M336.33,69.5c3.22,0,3.23-5,0-5s-3.22,5,0,5Z" style="fill: rgb(255, 255, 255); transform-origin: 336.33px 67px;" id="elwedcr4ur3mj" class="animable"></path><path d="M259,74.17c3.22,0,3.22-5,0-5s-3.22,5,0,5Z" style="fill: rgb(255, 255, 255); transform-origin: 259px 71.67px;" id="elzhyi6egjxwm" class="animable"></path><path d="M200.33,206.83c3.22,0,3.23-5,0-5s-3.22,5,0,5Z" style="fill: rgb(255, 255, 255); transform-origin: 200.33px 204.33px;" id="elbsej7xzymnw" class="animable"></path><path d="M108.33,213.5c3.22,0,3.23-5,0-5s-3.22,5,0,5Z" style="fill: rgb(255, 255, 255); transform-origin: 108.33px 211px;" id="elsg45uwo5fri" class="animable"></path><path d="M118.33,131.5c3.22,0,3.23-5,0-5s-3.22,5,0,5Z" style="fill: rgb(255, 255, 255); transform-origin: 118.33px 129px;" id="elay1g58rtcpr" class="animable"></path><path d="M369,110.83c3.22,0,3.22-5,0-5s-3.22,5,0,5Z" style="fill: rgb(255, 255, 255); transform-origin: 369px 108.33px;" id="eld7msf0dt0x4" class="animable"></path><path d="M442.33,238.17c3.22,0,3.23-5,0-5s-3.22,5,0,5Z" style="fill: rgb(255, 255, 255); transform-origin: 442.33px 235.67px;" id="el4seh8sp8hp5" class="animable"></path><path d="M369.67,234.83c3.21,0,3.22-5,0-5s-3.23,5,0,5Z" style="fill: rgb(255, 255, 255); transform-origin: 369.666px 232.33px;" id="elb71fdeh5m6r" class="animable"></path><path d="M358.33,174.83c3.22,0,3.23-5,0-5s-3.22,5,0,5Z" style="fill: rgb(255, 255, 255); transform-origin: 358.33px 172.33px;" id="el84trar9shum" class="animable"></path><path d="M433,164.83c3.22,0,3.22-5,0-5s-3.22,5,0,5Z" style="fill: rgb(255, 255, 255); transform-origin: 433px 162.33px;" id="elwfqz8ue2isf" class="animable"></path><path d="M362,196a1.5,1.5,0,0,0,0-3,1.5,1.5,0,0,0,0,3Z" style="fill: rgb(255, 255, 255); transform-origin: 362px 194.5px;" id="elh8r13jyuwy" class="animable"></path><path d="M339,150.5a1.5,1.5,0,0,0,0-3,1.5,1.5,0,0,0,0,3Z" style="fill: rgb(255, 255, 255); transform-origin: 339px 149px;" id="elnkboo039gme" class="animable"></path><path d="M271,165.5a1.5,1.5,0,0,0,0-3,1.5,1.5,0,0,0,0,3Z" style="fill: rgb(255, 255, 255); transform-origin: 271px 164px;" id="el1589mshqr3u" class="animable"></path><path d="M308.5,188.5a1.5,1.5,0,0,0,0-3,1.5,1.5,0,0,0,0,3Z" style="fill: rgb(255, 255, 255); transform-origin: 308.5px 187px;" id="elbe4jhpoeaao" class="animable"></path><path d="M315.5,118a1.5,1.5,0,0,0,0-3,1.5,1.5,0,0,0,0,3Z" style="fill: rgb(255, 255, 255); transform-origin: 315.5px 116.5px;" id="elqq77nmgch5" class="animable"></path><path d="M242.5,68a1.5,1.5,0,0,0,0-3,1.5,1.5,0,0,0,0,3Z" style="fill: rgb(255, 255, 255); transform-origin: 242.5px 66.5px;" id="elscvg2irmea9" class="animable"></path><path d="M266.5,126a1.5,1.5,0,0,0,0-3,1.5,1.5,0,0,0,0,3Z" style="fill: rgb(255, 255, 255); transform-origin: 266.5px 124.5px;" id="ellsjldjchceb" class="animable"></path><path d="M235.5,99a1.5,1.5,0,0,0,0-3,1.5,1.5,0,0,0,0,3Z" style="fill: rgb(255, 255, 255); transform-origin: 235.5px 97.5px;" id="eln6zyj9fvcu" class="animable"></path><path d="M193.5,113a1.5,1.5,0,0,0,0-3,1.5,1.5,0,0,0,0,3Z" style="fill: rgb(255, 255, 255); transform-origin: 193.5px 111.5px;" id="elqgjguvh2scd" class="animable"></path><path d="M162,149.5a1.5,1.5,0,0,0,0-3,1.5,1.5,0,0,0,0,3Z" style="fill: rgb(255, 255, 255); transform-origin: 162px 148px;" id="ell2mjm5z9axj" class="animable"></path><path d="M212,179a1.5,1.5,0,0,0,0-3,1.5,1.5,0,0,0,0,3Z" style="fill: rgb(255, 255, 255); transform-origin: 212px 177.5px;" id="elzpsdm3w6xk7" class="animable"></path><path d="M175.5,187a1.5,1.5,0,0,0,0-3,1.5,1.5,0,0,0,0,3Z" style="fill: rgb(255, 255, 255); transform-origin: 175.5px 185.5px;" id="elysbasc1duo" class="animable"></path><path d="M89,162.5a1.5,1.5,0,0,0,0-3,1.5,1.5,0,0,0,0,3Z" style="fill: rgb(255, 255, 255); transform-origin: 89px 161px;" id="eljwq8kgsxo2m" class="animable"></path><path d="M84.5,218a1.5,1.5,0,0,0,0-3,1.5,1.5,0,0,0,0,3Z" style="fill: rgb(255, 255, 255); transform-origin: 84.5px 216.5px;" id="elc9b6b84i15t" class="animable"></path><path d="M140.5,227a1.5,1.5,0,0,0,0-3,1.5,1.5,0,0,0,0,3Z" style="fill: rgb(255, 255, 255); transform-origin: 140.5px 225.5px;" id="elw0fgs7oxvql" class="animable"></path><path d="M362.5,66a1.5,1.5,0,0,0,0-3,1.5,1.5,0,0,0,0,3Z" style="fill: rgb(255, 255, 255); transform-origin: 362.5px 64.5px;" id="ele2ole9f3m09" class="animable"></path><path d="M328.5,55a1.5,1.5,0,0,0,0-3,1.5,1.5,0,0,0,0,3Z" style="fill: rgb(255, 255, 255); transform-origin: 328.5px 53.5px;" id="el3z26myg6vmn" class="animable"></path><path d="M322.5,82a1.5,1.5,0,0,0,0-3,1.5,1.5,0,0,0,0,3Z" style="fill: rgb(255, 255, 255); transform-origin: 322.5px 80.5px;" id="elhuu0gbougjl" class="animable"></path><path d="M387.5,97.5a1.5,1.5,0,0,0,0-3,1.5,1.5,0,0,0,0,3Z" style="fill: rgb(255, 255, 255); transform-origin: 387.5px 96px;" id="elqkg91nhmhfm" class="animable"></path><path d="M383,126a1.5,1.5,0,0,0,0-3,1.5,1.5,0,0,0,0,3Z" style="fill: rgb(255, 255, 255); transform-origin: 383px 124.5px;" id="el9d85u19bcgc" class="animable"></path><path d="M436.5,151a1.5,1.5,0,0,0,0-3,1.5,1.5,0,0,0,0,3Z" style="fill: rgb(255, 255, 255); transform-origin: 436.5px 149.5px;" id="el8sqbbpmgn7" class="animable"></path><path d="M449.5,184.5a1.5,1.5,0,0,0,0-3,1.5,1.5,0,0,0,0,3Z" style="fill: rgb(255, 255, 255); transform-origin: 449.5px 183px;" id="eleek1t5t0u5e" class="animable"></path><path d="M405.5,184a1.5,1.5,0,0,0,0-3,1.5,1.5,0,0,0,0,3Z" style="fill: rgb(255, 255, 255); transform-origin: 405.5px 182.5px;" id="elyc6aoqbwn1" class="animable"></path><path d="M444,258.5a1.5,1.5,0,0,0,0-3,1.5,1.5,0,0,0,0,3Z" style="fill: rgb(255, 255, 255); transform-origin: 444px 257px;" id="elw4cv67vi0qr" class="animable"></path><path d="M225,62a1.5,1.5,0,0,0,0-3,1.5,1.5,0,0,0,0,3Z" style="fill: rgb(255, 255, 255); transform-origin: 225px 60.5px;" id="el3ska869pjyv" class="animable"></path><path d="M403,165.5a.5.5,0,0,0,0-1,.5.5,0,0,0,0,1Z" style="fill: rgb(255, 255, 255); transform-origin: 403px 165px;" id="eltamttpfduo" class="animable"></path><path d="M370,178a.5.5,0,0,0,0-1,.5.5,0,0,0,0,1Z" style="fill: rgb(255, 255, 255); transform-origin: 370px 177.5px;" id="elh3kyjxzu25" class="animable"></path><path d="M321,190a.5.5,0,0,0,0-1,.5.5,0,0,0,0,1Z" style="fill: rgb(255, 255, 255); transform-origin: 321px 189.5px;" id="elq3zntnlxy5q" class="animable"></path><path d="M319,158a.5.5,0,0,0,0-1,.5.5,0,0,0,0,1Z" style="fill: rgb(255, 255, 255); transform-origin: 319px 157.5px;" id="elaqm88mb525r" class="animable"></path><path d="M283,193.5a.5.5,0,0,0,0-1,.5.5,0,0,0,0,1Z" style="fill: rgb(255, 255, 255); transform-origin: 283px 193px;" id="elhm6lb63ph0g" class="animable"></path><path d="M241,173.5a.5.5,0,0,0,0-1,.5.5,0,0,0,0,1Z" style="fill: rgb(255, 255, 255); transform-origin: 241px 173px;" id="elpv02ksg34i" class="animable"></path><path d="M239.5,211a.5.5,0,0,0,0-1,.5.5,0,0,0,0,1Z" style="fill: rgb(255, 255, 255); transform-origin: 239.5px 210.5px;" id="eltnruew8tm1l" class="animable"></path><path d="M264,139.5a.5.5,0,0,0,0-1,.5.5,0,0,0,0,1Z" style="fill: rgb(255, 255, 255); transform-origin: 264px 139px;" id="el5mbq745kz9f" class="animable"></path><path d="M215.5,127.5a.5.5,0,0,0,0-1,.5.5,0,0,0,0,1Z" style="fill: rgb(255, 255, 255); transform-origin: 215.5px 127px;" id="elmhhwy699ndp" class="animable"></path><path d="M276.5,105.5a.5.5,0,0,0,0-1,.5.5,0,0,0,0,1Z" style="fill: rgb(255, 255, 255); transform-origin: 276.5px 105px;" id="el400unguh1w1" class="animable"></path><path d="M293,64.5a.5.5,0,0,0,0-1,.5.5,0,0,0,0,1Z" style="fill: rgb(255, 255, 255); transform-origin: 293px 64px;" id="eltc97mgz276m" class="animable"></path><path d="M273,55.5a.5.5,0,0,0,0-1,.5.5,0,0,0,0,1Z" style="fill: rgb(255, 255, 255); transform-origin: 273px 55px;" id="eljspl8mq0mr" class="animable"></path><path d="M247.5,78.5a.5.5,0,0,0,0-1,.5.5,0,0,0,0,1Z" style="fill: rgb(255, 255, 255); transform-origin: 247.5px 78px;" id="elfqm2oajmkst" class="animable"></path><path d="M201.5,80.5a.5.5,0,0,0,0-1,.5.5,0,0,0,0,1Z" style="fill: rgb(255, 255, 255); transform-origin: 201.5px 80px;" id="el8illqo5a0g" class="animable"></path><path d="M186,87.5a.5.5,0,0,0,0-1,.5.5,0,0,0,0,1Z" style="fill: rgb(255, 255, 255); transform-origin: 186px 87px;" id="ely6tvgplndh8" class="animable"></path><path d="M198,104a.5.5,0,0,0,0-1,.5.5,0,0,0,0,1Z" style="fill: rgb(255, 255, 255); transform-origin: 198px 103.5px;" id="elesjl5xqwh5" class="animable"></path><path d="M170.5,108a.5.5,0,0,0,0-1,.5.5,0,0,0,0,1Z" style="fill: rgb(255, 255, 255); transform-origin: 170.5px 107.5px;" id="elh0m72147ekm" class="animable"></path><path d="M172.5,127a.5.5,0,0,0,0-1,.5.5,0,0,0,0,1Z" style="fill: rgb(255, 255, 255); transform-origin: 172.5px 126.5px;" id="el6rig69t8s3e" class="animable"></path><path d="M140.5,121a.5.5,0,0,0,0-1,.5.5,0,0,0,0,1Z" style="fill: rgb(255, 255, 255); transform-origin: 140.5px 120.5px;" id="elm6nmdujg8ls" class="animable"></path><path d="M119,167a.5.5,0,0,0,0-1,.5.5,0,0,0,0,1Z" style="fill: rgb(255, 255, 255); transform-origin: 119px 166.5px;" id="elqcpbkbhi9uq" class="animable"></path><path d="M144,98a.5.5,0,0,0,0-1,.5.5,0,0,0,0,1Z" style="fill: rgb(255, 255, 255); transform-origin: 144px 97.5px;" id="elozeresxbjzh" class="animable"></path><path d="M105,129.5a.5.5,0,0,0,0-1,.5.5,0,0,0,0,1Z" style="fill: rgb(255, 255, 255); transform-origin: 105px 129px;" id="el3oq3md2axa6" class="animable"></path><path d="M113.5,148a.5.5,0,0,0,0-1,.5.5,0,0,0,0,1Z" style="fill: rgb(255, 255, 255); transform-origin: 113.5px 147.5px;" id="eltn6p8bgijb9" class="animable"></path><path d="M92.5,177.5a.5.5,0,0,0,0-1,.5.5,0,0,0,0,1Z" style="fill: rgb(255, 255, 255); transform-origin: 92.5px 177px;" id="el6xg0tdm91mp" class="animable"></path><path d="M70,197.5a.5.5,0,0,0,0-1,.5.5,0,0,0,0,1Z" style="fill: rgb(255, 255, 255); transform-origin: 70px 197px;" id="eljn20ekvfl0i" class="animable"></path><path d="M47.5,240a.5.5,0,0,0,0-1,.5.5,0,0,0,0,1Z" style="fill: rgb(255, 255, 255); transform-origin: 47.5px 239.5px;" id="elovlxqu594pe" class="animable"></path><path d="M62,257.5a.5.5,0,0,0,0-1,.5.5,0,0,0,0,1Z" style="fill: rgb(255, 255, 255); transform-origin: 62px 257px;" id="elyy7qirrc8o" class="animable"></path><path d="M83.5,237a.5.5,0,0,0,0-1,.5.5,0,0,0,0,1Z" style="fill: rgb(255, 255, 255); transform-origin: 83.5px 236.5px;" id="elyw75k4jp24e" class="animable"></path><path d="M97,240a.5.5,0,0,0,0-1,.5.5,0,0,0,0,1Z" style="fill: rgb(255, 255, 255); transform-origin: 97px 239.5px;" id="eljmjxaq9k5c" class="animable"></path><path d="M136,200.5a.5.5,0,0,0,0-1,.5.5,0,0,0,0,1Z" style="fill: rgb(255, 255, 255); transform-origin: 136px 200px;" id="elfdv0ti3mn5e" class="animable"></path><path d="M335,209a.5.5,0,0,0,0-1,.5.5,0,0,0,0,1Z" style="fill: rgb(255, 255, 255); transform-origin: 335px 208.5px;" id="elpp7zooxipd" class="animable"></path><path d="M394.5,224.5a.5.5,0,0,0,0-1,.5.5,0,0,0,0,1Z" style="fill: rgb(255, 255, 255); transform-origin: 394.5px 224px;" id="el3ak6goggmwv" class="animable"></path><path d="M420,247.5a.5.5,0,0,0,0-1,.5.5,0,0,0,0,1Z" style="fill: rgb(255, 255, 255); transform-origin: 420px 247px;" id="elz4t49xwc2li" class="animable"></path><path d="M431,206a.5.5,0,0,0,0-1,.5.5,0,0,0,0,1Z" style="fill: rgb(255, 255, 255); transform-origin: 431px 205.5px;" id="eljlt2ktq3gqo" class="animable"></path><path d="M474,216.5a.5.5,0,0,0,0-1,.5.5,0,0,0,0,1Z" style="fill: rgb(255, 255, 255); transform-origin: 474px 216px;" id="elq9qys95lxf" class="animable"></path><path d="M471,260a.5.5,0,0,0,0-1,.5.5,0,0,0,0,1Z" style="fill: rgb(255, 255, 255); transform-origin: 471px 259.5px;" id="elbv2bqcqrlyr" class="animable"></path><path d="M353,122.83a.5.5,0,0,0,0-1,.5.5,0,0,0,0,1Z" style="fill: rgb(255, 255, 255); transform-origin: 353px 122.33px;" id="elb7mfb9ohjms" class="animable"></path><path d="M360.33,142.17a.5.5,0,0,0,0-1,.5.5,0,0,0,0,1Z" style="fill: rgb(255, 255, 255); transform-origin: 360.33px 141.67px;" id="elqvkq27r7rj" class="animable"></path><path d="M339,89.5a.5.5,0,0,0,0-1,.5.5,0,0,0,0,1Z" style="fill: rgb(255, 255, 255); transform-origin: 339px 89px;" id="eliyqhv7neah" class="animable"></path><path d="M403,86.17a.5.5,0,0,0,0-1,.5.5,0,0,0,0,1Z" style="fill: rgb(255, 255, 255); transform-origin: 403px 85.67px;" id="ele16gwm6ih67" class="animable"></path><path d="M419,118.83a.5.5,0,0,0,0-1,.5.5,0,0,0,0,1Z" style="fill: rgb(255, 255, 255); transform-origin: 419px 118.33px;" id="elhnalqwbocnb" class="animable"></path><path d="M297,43.5a.5.5,0,0,0,0-1,.5.5,0,0,0,0,1Z" style="fill: rgb(255, 255, 255); transform-origin: 297px 43px;" id="elfdrx5rcxqzb" class="animable"></path><path d="M291,140.83a.5.5,0,0,0,0-1,.5.5,0,0,0,0,1Z" style="fill: rgb(255, 255, 255); transform-origin: 291px 140.33px;" id="el84rn6gzu99w" class="animable"></path><path d="M228.33,149.5a.5.5,0,0,0,0-1,.5.5,0,0,0,0,1Z" style="fill: rgb(255, 255, 255); transform-origin: 228.33px 149px;" id="elb6v7pbmmp3j" class="animable"></path><path d="M193.67,164.83a.5.5,0,0,0,0-1,.5.5,0,0,0,0,1Z" style="fill: rgb(255, 255, 255); transform-origin: 193.67px 164.33px;" id="elxs4hy6h67ec" class="animable"></path></g></g></g><g id="freepik--Moon--inject-58" class="animable" style="transform-origin: 93.81px 69.8px;"><circle cx="93.75" cy="69.8" r="43.93" style="fill: rgb(186, 104, 200); transform-origin: 93.75px 69.8px;" id="elqv1ok5zovjg" class="animable"></circle><g id="elo9b2x037qo"><circle cx="93.75" cy="69.8" r="43.93" style="fill: rgb(255, 255, 255); opacity: 0.7; transform-origin: 93.75px 69.8px;" class="animable"></circle></g><path d="M137.22,63.47c-1.86-2.17-4.82-3.77-6.05-6.43a27.19,27.19,0,0,1-1-3.1,4.71,4.71,0,0,0-1.79-2.63,2.23,2.23,0,0,0-2.92.39c-.81,1.18.12,2.79,1.25,3.66s2.55,1.54,3.11,2.85a2.81,2.81,0,1,1-5.36,1.51c-.13-.91.08-2.07-.72-2.54-1.21-.7-2.54,1.47-3.88,1-1-.32-1-1.81-.57-2.78s1.19-2,.92-3c-.39-1.48-2.33-1.7-3.76-2.24-1.63-.61-2.89-1.92-4.4-2.8s-3.64-1.2-4.84,0c-1.39,1.45-.74,4.1-2.15,5.52-.81.81-2.2,1.09-2.6,2.17-.49,1.32,1,2.6,2.44,2.7s2.79-.43,4.2-.32,2.93,1.37,2.45,2.69a2.43,2.43,0,0,1-2.48,1.28c-1,0-2-.38-3-.33s-2.08.69-2.13,1.69c-.08,1.55,2.31,2.62,1.8,4.09-.37,1-1.93,1-2.81.38s-1.4-1.71-2.25-2.42-2.35-.9-2.89.06c-.75,1.37,1.33,3.16.49,4.48a1.78,1.78,0,0,1-2,.52,11.51,11.51,0,0,1-2-1,4.58,4.58,0,0,0-3.45-.44A3.13,3.13,0,0,0,88.68,71a2.4,2.4,0,0,0,1.9,2.61,6.16,6.16,0,0,0,2.26-.4,2.09,2.09,0,0,1,2.15.45,2.2,2.2,0,0,1-.09,2.29,4.64,4.64,0,0,0-.8,2.25c.09,1.51,2.12,2.25,3.49,1.62a6,6,0,0,0,2.7-3.5,10.88,10.88,0,0,1,2.11-4c1.41-1.38,4-1.55,5.25,0,.86,1.09.84,2.62.78,4-.05.93-.09,1.86-.13,2.8-.07,1.4-.18,2.94-1.15,4a1.62,1.62,0,0,1-2.11-.06,15,15,0,0,0-1.94-1.47,2.4,2.4,0,0,0-3.35,2.73c.43,1.84,2.85,2.75,3.12,4.62a2.58,2.58,0,0,1-1.9,2.73,3.29,3.29,0,0,1-3.26-1.13,4.54,4.54,0,0,1-.93-3.42A11.41,11.41,0,0,0,97,85.48a1.63,1.63,0,0,0-.73-1.41,1.56,1.56,0,0,0-1.7.29,5.52,5.52,0,0,0-1.12,1.45,5.06,5.06,0,0,1-3.1,2.47c-1.34.24-2.93-.81-2.77-2.16a2.93,2.93,0,0,1,1.58-2,7.33,7.33,0,0,0,2.11-1.56,1.68,1.68,0,0,0-.18-2.35c-.75-.46-1.74.06-2.37.68s-1.22,1.41-2.09,1.56-1.69-.27-2.33.21-.49,1.57-.73,2.39a3.65,3.65,0,0,1-2.76,2.15,9.73,9.73,0,0,0-3.43,1.2c-1,.74-1.42,2.35-.5,3.15.24.71,1.74,1.2,2.48,1.08s1.61-.29,2.15.23c1,.94-.37,2.72.3,3.89.54.93,2,.78,2.83.06a17.66,17.66,0,0,0,1.88-2.63c.66-.86,1.85-1.52,2.8-1s1,2.14.37,3.13a22,22,0,0,1-2.49,2.53c-.79.89-1.28,2.28-.57,3.24a2.78,2.78,0,0,0,2.73.76,11.44,11.44,0,0,1,3-.43c1.65.16,2.88,1.54,4.2,2.54s3.38,1.64,4.52.43a3.27,3.27,0,0,0,.36-3.24,20,20,0,0,1-1.16-3.22,3.76,3.76,0,0,1,1.43-3.67,2.9,2.9,0,0,1,3.76.41,4.86,4.86,0,0,1,.83,2.6,6,6,0,0,0,.69,2.64,1.89,1.89,0,0,0,2.37.8c.82-.48.9-1.6,1-2.54s.38-2.09,1.3-2.29,1.88,1.08,1.81,2.18-.65,2.1-.71,3.2.83,2.38,1.88,2.08c.82-.23,1.11-1.24,1.14-2.09a4.08,4.08,0,0,1,.48-2.46c.68-.86,2-.8,3.07-.6s2.3.45,3.18-.2c1.08-.81,1-2.43.88-3.78s.25-3.09,1.58-3.37c1.65-.34,3,2,4.6,1.67,1.29-.24,1.71-1.82,2.41-2.92a4.31,4.31,0,0,1,1.24-1.24,43.93,43.93,0,0,0,4.12-25.87Z" style="fill: rgb(186, 104, 200); transform-origin: 107.085px 76.3077px;" id="el97od32otake" class="animable"></path><path d="M74.56,58.3a4.18,4.18,0,0,1,2.51,1.18,12.34,12.34,0,0,0,2.22,1.74A4.23,4.23,0,0,0,83,61.3a4.27,4.27,0,0,0,2.34-2.94c.28-1.31-.07-2.67,0-4s.8-2.91,2.14-3a1.87,1.87,0,0,1,2.71.56,3.44,3.44,0,0,1,0,3,28.89,28.89,0,0,1-1.53,2.77,4.35,4.35,0,0,0-.58,3c.44,1.76,2.44,2.64,4.24,2.84a5,5,0,0,0,2.31-.17,2.45,2.45,0,0,0,1.6-1.58c.48-1.8-1.72-3.57-1.13-5.34s3.65-2,4.09-3.83c.24-1-.39-2,0-3s1.19-1.24,2-1.61,1.66-.91,1.76-1.78c.13-1.13-1.1-1.92-2.19-2.25s-2.37-.6-2.89-1.62A2.55,2.55,0,0,1,99,39.41a4.09,4.09,0,0,1,5.64,1.39c.5.93.67,2.12,1.53,2.73a3.08,3.08,0,0,0,2.51.23,10.8,10.8,0,0,1,2.53-.59c1.77,0,3.24,1.28,4.48,2.55.44.46.9.93,1.39,1.35a2,2,0,0,0,3.25-1.93,6.94,6.94,0,0,0-.83-2,9.28,9.28,0,0,0-4.34-3.44,19.57,19.57,0,0,0-3.28-1,5.71,5.71,0,0,1-3.17-1.91,6.41,6.41,0,0,0-10.49.71A9.16,9.16,0,0,1,97,39.32a1.64,1.64,0,0,1-2,.39c-1-.69-.48-2.57-1.53-3.16a1.47,1.47,0,0,0-1.91.88,4.26,4.26,0,0,0,0,2.35,4.32,4.32,0,0,1,0,2.34,3.61,3.61,0,0,1-2.27,1.76A9.54,9.54,0,0,0,86.55,45c-1.53,1.13-2,3.44-3.71,4.24a2.72,2.72,0,0,1-3.47-3.85c.45-.75,1.23-1.25,1.74-2s.58-1.91-.21-2.3-1.76.44-2.17,1.28S77.92,44.3,77,44.53s-1.65-.37-2.4-.83-1.82-.74-2.39-.08,0,1.83.38,2.75A3.67,3.67,0,0,1,72,50.06a3,3,0,0,1-3.58.64,2.47,2.47,0,0,1-.79-3.41c.26-.37.64-.64.91-1A1.18,1.18,0,0,0,68.74,45a1.2,1.2,0,0,0-1.47-.27c-.51.21-.93.59-1.44.78a2.38,2.38,0,0,1-2.94-1.88,3.05,3.05,0,0,1,1.88-3.16,4.38,4.38,0,0,1,3.82.36c.65.38,1.33.91,2.07.77,1.15-.21,1.48-1.81,2.53-2.31a3.66,3.66,0,0,1,2.53.19c.84.23,1.91.25,2.37-.49a2.06,2.06,0,0,0-.51-2.27,4.21,4.21,0,0,1-1.27-2.09c-.1-1,.79-1.93,1-3a2.36,2.36,0,0,0-1-2.23,44,44,0,0,0-18.9,15.67,3,3,0,0,0,.63,1,19.23,19.23,0,0,0,1.77,1.35,2.28,2.28,0,0,1,1,1.88,1.85,1.85,0,0,1-1,1.38,3.66,3.66,0,0,1-1.73.35,7.69,7.69,0,0,1-3.63-.94A43.28,43.28,0,0,0,51,59.83c.56-.15,1.08-.42,1.64-.55a1.75,1.75,0,0,1,1.66.34c.44.45.45,1.16.72,1.73a2.64,2.64,0,0,0,3.43.9,7.67,7.67,0,0,0,2.79-2.7A7.67,7.67,0,0,1,64,56.86a2.63,2.63,0,0,1,3.42.91,2.79,2.79,0,0,1-.72,3,18.54,18.54,0,0,1-2.59,2,3.89,3.89,0,0,0-1.74,2.64c-.08,1.08.9,2.25,2,2s1.34-1.27,1.65-2.17.83-1.94,1.78-2a2.11,2.11,0,0,1,1.68.89,7.09,7.09,0,0,0,1.32,1.46,2.29,2.29,0,0,0,3.38-2.83c-.44-1-1.59-1.7-1.56-2.78A1.85,1.85,0,0,1,74.56,58.3Z" style="fill: rgb(186, 104, 200); transform-origin: 85.6855px 48.4221px;" id="elyk5lmxfcry9" class="animable"></path><g id="eld2xolj88pj"><g style="opacity: 0.5; transform-origin: 94.4px 67.72px;" class="animable"><path d="M137.22,63.47c-1.86-2.17-4.82-3.77-6.05-6.43a27.19,27.19,0,0,1-1-3.1,4.71,4.71,0,0,0-1.79-2.63,2.23,2.23,0,0,0-2.92.39c-.81,1.18.12,2.79,1.25,3.66s2.55,1.54,3.11,2.85a2.81,2.81,0,1,1-5.36,1.51c-.13-.91.08-2.07-.72-2.54-1.21-.7-2.54,1.47-3.88,1-1-.32-1-1.81-.57-2.78s1.19-2,.92-3c-.39-1.48-2.33-1.7-3.76-2.24-1.63-.61-2.89-1.92-4.4-2.8s-3.64-1.2-4.84,0c-1.39,1.45-.74,4.1-2.15,5.52-.81.81-2.2,1.09-2.6,2.17-.49,1.32,1,2.6,2.44,2.7s2.79-.43,4.2-.32,2.93,1.37,2.45,2.69a2.43,2.43,0,0,1-2.48,1.28c-1,0-2-.38-3-.33s-2.08.69-2.13,1.69c-.08,1.55,2.31,2.62,1.8,4.09-.37,1-1.93,1-2.81.38s-1.4-1.71-2.25-2.42-2.35-.9-2.89.06c-.75,1.37,1.33,3.16.49,4.48a1.78,1.78,0,0,1-2,.52,11.51,11.51,0,0,1-2-1,4.58,4.58,0,0,0-3.45-.44A3.13,3.13,0,0,0,88.68,71a2.4,2.4,0,0,0,1.9,2.61,6.16,6.16,0,0,0,2.26-.4,2.09,2.09,0,0,1,2.15.45,2.2,2.2,0,0,1-.09,2.29,4.64,4.64,0,0,0-.8,2.25c.09,1.51,2.12,2.25,3.49,1.62a6,6,0,0,0,2.7-3.5,10.88,10.88,0,0,1,2.11-4c1.41-1.38,4-1.55,5.25,0,.86,1.09.84,2.62.78,4-.05.93-.09,1.86-.13,2.8-.07,1.4-.18,2.94-1.15,4a1.62,1.62,0,0,1-2.11-.06,15,15,0,0,0-1.94-1.47,2.4,2.4,0,0,0-3.35,2.73c.43,1.84,2.85,2.75,3.12,4.62a2.58,2.58,0,0,1-1.9,2.73,3.29,3.29,0,0,1-3.26-1.13,4.54,4.54,0,0,1-.93-3.42A11.41,11.41,0,0,0,97,85.48a1.63,1.63,0,0,0-.73-1.41,1.56,1.56,0,0,0-1.7.29,5.52,5.52,0,0,0-1.12,1.45,5.06,5.06,0,0,1-3.1,2.47c-1.34.24-2.93-.81-2.77-2.16a2.93,2.93,0,0,1,1.58-2,7.33,7.33,0,0,0,2.11-1.56,1.68,1.68,0,0,0-.18-2.35c-.75-.46-1.74.06-2.37.68s-1.22,1.41-2.09,1.56-1.69-.27-2.33.21-.49,1.57-.73,2.39a3.65,3.65,0,0,1-2.76,2.15,9.73,9.73,0,0,0-3.43,1.2c-1,.74-1.42,2.35-.5,3.15.24.71,1.74,1.2,2.48,1.08s1.61-.29,2.15.23c1,.94-.37,2.72.3,3.89.54.93,2,.78,2.83.06a17.66,17.66,0,0,0,1.88-2.63c.66-.86,1.85-1.52,2.8-1s1,2.14.37,3.13a22,22,0,0,1-2.49,2.53c-.79.89-1.28,2.28-.57,3.24a2.78,2.78,0,0,0,2.73.76,11.44,11.44,0,0,1,3-.43c1.65.16,2.88,1.54,4.2,2.54s3.38,1.64,4.52.43a3.27,3.27,0,0,0,.36-3.24,20,20,0,0,1-1.16-3.22,3.76,3.76,0,0,1,1.43-3.67,2.9,2.9,0,0,1,3.76.41,4.86,4.86,0,0,1,.83,2.6,6,6,0,0,0,.69,2.64,1.89,1.89,0,0,0,2.37.8c.82-.48.9-1.6,1-2.54s.38-2.09,1.3-2.29,1.88,1.08,1.81,2.18-.65,2.1-.71,3.2.83,2.38,1.88,2.08c.82-.23,1.11-1.24,1.14-2.09a4.08,4.08,0,0,1,.48-2.46c.68-.86,2-.8,3.07-.6s2.3.45,3.18-.2c1.08-.81,1-2.43.88-3.78s.25-3.09,1.58-3.37c1.65-.34,3,2,4.6,1.67,1.29-.24,1.71-1.82,2.41-2.92a4.31,4.31,0,0,1,1.24-1.24,43.93,43.93,0,0,0,4.12-25.87Z" style="fill: rgb(255, 255, 255); transform-origin: 107.085px 76.3077px;" id="elt1ty97y5jua" class="animable"></path><path d="M74.56,58.3a4.18,4.18,0,0,1,2.51,1.18,12.34,12.34,0,0,0,2.22,1.74A4.23,4.23,0,0,0,83,61.3a4.27,4.27,0,0,0,2.34-2.94c.28-1.31-.07-2.67,0-4s.8-2.91,2.14-3a1.87,1.87,0,0,1,2.71.56,3.44,3.44,0,0,1,0,3,28.89,28.89,0,0,1-1.53,2.77,4.35,4.35,0,0,0-.58,3c.44,1.76,2.44,2.64,4.24,2.84a5,5,0,0,0,2.31-.17,2.45,2.45,0,0,0,1.6-1.58c.48-1.8-1.72-3.57-1.13-5.34s3.65-2,4.09-3.83c.24-1-.39-2,0-3s1.19-1.24,2-1.61,1.66-.91,1.76-1.78c.13-1.13-1.1-1.92-2.19-2.25s-2.37-.6-2.89-1.62A2.55,2.55,0,0,1,99,39.41a4.09,4.09,0,0,1,5.64,1.39c.5.93.67,2.12,1.53,2.73a3.08,3.08,0,0,0,2.51.23,10.8,10.8,0,0,1,2.53-.59c1.77,0,3.24,1.28,4.48,2.55.44.46.9.93,1.39,1.35a2,2,0,0,0,3.25-1.93,6.94,6.94,0,0,0-.83-2,9.28,9.28,0,0,0-4.34-3.44,19.57,19.57,0,0,0-3.28-1,5.71,5.71,0,0,1-3.17-1.91,6.41,6.41,0,0,0-10.49.71A9.16,9.16,0,0,1,97,39.32a1.64,1.64,0,0,1-2,.39c-1-.69-.48-2.57-1.53-3.16a1.47,1.47,0,0,0-1.91.88,4.26,4.26,0,0,0,0,2.35,4.32,4.32,0,0,1,0,2.34,3.61,3.61,0,0,1-2.27,1.76A9.54,9.54,0,0,0,86.55,45c-1.53,1.13-2,3.44-3.71,4.24a2.72,2.72,0,0,1-3.47-3.85c.45-.75,1.23-1.25,1.74-2s.58-1.91-.21-2.3-1.76.44-2.17,1.28S77.92,44.3,77,44.53s-1.65-.37-2.4-.83-1.82-.74-2.39-.08,0,1.83.38,2.75A3.67,3.67,0,0,1,72,50.06a3,3,0,0,1-3.58.64,2.47,2.47,0,0,1-.79-3.41c.26-.37.64-.64.91-1A1.18,1.18,0,0,0,68.74,45a1.2,1.2,0,0,0-1.47-.27c-.51.21-.93.59-1.44.78a2.38,2.38,0,0,1-2.94-1.88,3.05,3.05,0,0,1,1.88-3.16,4.38,4.38,0,0,1,3.82.36c.65.38,1.33.91,2.07.77,1.15-.21,1.48-1.81,2.53-2.31a3.66,3.66,0,0,1,2.53.19c.84.23,1.91.25,2.37-.49a2.06,2.06,0,0,0-.51-2.27,4.21,4.21,0,0,1-1.27-2.09c-.1-1,.79-1.93,1-3a2.36,2.36,0,0,0-1-2.23,44,44,0,0,0-18.9,15.67,3,3,0,0,0,.63,1,19.23,19.23,0,0,0,1.77,1.35,2.28,2.28,0,0,1,1,1.88,1.85,1.85,0,0,1-1,1.38,3.66,3.66,0,0,1-1.73.35,7.69,7.69,0,0,1-3.63-.94A43.28,43.28,0,0,0,51,59.83c.56-.15,1.08-.42,1.64-.55a1.75,1.75,0,0,1,1.66.34c.44.45.45,1.16.72,1.73a2.64,2.64,0,0,0,3.43.9,7.67,7.67,0,0,0,2.79-2.7A7.67,7.67,0,0,1,64,56.86a2.63,2.63,0,0,1,3.42.91,2.79,2.79,0,0,1-.72,3,18.54,18.54,0,0,1-2.59,2,3.89,3.89,0,0,0-1.74,2.64c-.08,1.08.9,2.25,2,2s1.34-1.27,1.65-2.17.83-1.94,1.78-2a2.11,2.11,0,0,1,1.68.89,7.09,7.09,0,0,0,1.32,1.46,2.29,2.29,0,0,0,3.38-2.83c-.44-1-1.59-1.7-1.56-2.78A1.85,1.85,0,0,1,74.56,58.3Z" style="fill: rgb(255, 255, 255); transform-origin: 85.6855px 48.4221px;" id="elb4gb4j43nea" class="animable"></path></g></g></g><g id="freepik--Cloud--inject-58" class="animable" style="transform-origin: 453.175px 67.9064px;"><path d="M457.94,54.63c-3.91-2.26-7.22-1.15-8.27,2.36a11.53,11.53,0,0,0-4.22-4.7c-3.07-1.77-5.56-.35-5.57,3.17v1.62l-4.12-2.38c-2.14-1.24-3.89-.24-3.89,2.23a8.51,8.51,0,0,0,3.87,6.7l34.84,20.12c2.15,1.24,3.9.25,3.9-2.22a8.54,8.54,0,0,0-3.87-6.71l-4.12-2.38v-3C466.52,64,462.68,57.37,457.94,54.63Z" style="fill: rgb(230, 230, 230); transform-origin: 453.175px 67.9064px;" id="elz5mbvxt37l" class="animable"></path></g><defs>     <filter id="active" height="200%">         <feMorphology in="SourceAlpha" result="DILATED" operator="dilate" radius="2"></feMorphology>                <feFlood flood-color="#32DFEC" flood-opacity="1" result="PINK"></feFlood>        <feComposite in="PINK" in2="DILATED" operator="in" result="OUTLINE"></feComposite>        <feMerge>            <feMergeNode in="OUTLINE"></feMergeNode>            <feMergeNode in="SourceGraphic"></feMergeNode>        </feMerge>    </filter>    <filter id="hover" height="200%">        <feMorphology in="SourceAlpha" result="DILATED" operator="dilate" radius="2"></feMorphology>                <feFlood flood-color="#ff0000" flood-opacity="0.5" result="PINK"></feFlood>        <feComposite in="PINK" in2="DILATED" operator="in" result="OUTLINE"></feComposite>        <feMerge>            <feMergeNode in="OUTLINE"></feMergeNode>            <feMergeNode in="SourceGraphic"></feMergeNode>        </feMerge>            <feColorMatrix type="matrix" values="0   0   0   0   0                0   1   0   0   0                0   0   0   0   0                0   0   0   1   0 "></feColorMatrix>    </filter></defs></svg>